Abhaya Libre Latin-Bold.ufo
<glyph name="exclam" format="1">
  <advance width="234"/>
  <unicode hex="0021"/>
  <outline>
    <contour>
      <point x="191" y="579"/>
      <point x="173" y="610"/>
      <point x="118" y="610" type="curve" smooth="yes"/>
      <point x="62" y="610"/>
      <point x="43" y="577"/>
      <point x="43" y="536" type="curve" smooth="yes"/>
      <point x="43" y="453"/>
      <point x="100" y="382"/>
      <point x="100" y="192" type="curve"/>
      <point x="134" y="192" type="line"/>
      <point x="134" y="382"/>
      <point x="191" y="458"/>
      <point x="191" y="541" type="curve" smooth="yes"/>
    </contour>
    <component base="period" xOffset="23"/>
  </outline>
</glyph>
<glyph name="ampersand" format="1">
  <advance width="609"/>
  <unicode hex="0026"/>
  <outline>
    <contour>
      <point x="497" y="150"/>
      <point x="382" y="20"/>
      <point x="268" y="20" type="curve" smooth="yes"/>
      <point x="177" y="20"/>
      <point x="139" y="107"/>
      <point x="139" y="188" type="curve" smooth="yes"/>
      <point x="139" y="261"/>
      <point x="159" y="341"/>
      <point x="220" y="350" type="curve"/>
      <point x="195" y="368" type="line"/>
      <point x="97" y="338"/>
      <point x="25" y="280"/>
      <point x="25" y="164" type="curve" smooth="yes"/>
      <point x="25" y="54"/>
      <point x="120" y="-10"/>
      <point x="228" y="-10" type="curve" smooth="yes"/>
      <point x="439" y="-10"/>
      <point x="525" y="154"/>
      <point x="525" y="319" type="curve"/>
      <point x="497" y="326" type="line"/>
    </contour>
    <contour>
      <point x="419" y="162"/>
      <point x="252" y="402"/>
      <point x="252" y="526" type="curve" smooth="yes"/>
      <point x="252" y="567"/>
      <point x="281" y="587"/>
      <point x="311" y="587" type="curve" smooth="yes"/>
      <point x="341" y="587"/>
      <point x="373" y="565"/>
      <point x="373" y="523" type="curve" smooth="yes"/>
      <point x="373" y="470"/>
      <point x="325" y="400"/>
      <point x="222" y="388" type="curve"/>
      <point x="228" y="364" type="line"/>
      <point x="339" y="375"/>
      <point x="402" y="456"/>
      <point x="402" y="523" type="curve" smooth="yes"/>
      <point x="402" y="583"/>
      <point x="349" y="614"/>
      <point x="291" y="614" type="curve" smooth="yes"/>
      <point x="223" y="614"/>
      <point x="150" y="571"/>
      <point x="150" y="480" type="curve" smooth="yes"/>
      <point x="150" y="333"/>
      <point x="326" y="137"/>
      <point x="436" y="0" type="curve"/>
      <point x="570" y="0" type="line"/>
    </contour>
    <contour>
      <point x="525" y="319" type="line"/>
      <point x="534" y="320"/>
      <point x="544" y="320"/>
      <point x="554" y="320" type="curve" smooth="yes"/>
      <point x="573" y="320"/>
      <point x="589" y="322"/>
      <point x="589" y="347" type="curve"/>
      <point x="440" y="347" type="line"/>
      <point x="440" y="321" type="line"/>
      <point x="501" y="321" type="line"/>
    </contour>
    <contour>
      <point x="433" y="26" type="line"/>
      <point x="446" y="0" type="line"/>
      <point x="599" y="0" type="line"/>
      <point x="599" y="22"/>
      <point x="592" y="26"/>
      <point x="574" y="26" type="curve" smooth="yes"/>
      <point x="560" y="26" type="line"/>
    </contour>
  </outline>
</glyph>
<glyph name="asterisk" format="1">
  <advance width="383"/>
  <unicode hex="002A"/>
  <outline>
    <contour>
      <point x="240" y="640"/>
      <point x="218" y="650"/>
      <point x="194" y="650" type="curve" smooth="yes"/>
      <point x="169" y="650"/>
      <point x="146" y="639"/>
      <point x="146" y="615" type="curve" smooth="yes"/>
      <point x="146" y="581"/>
      <point x="178" y="538"/>
      <point x="187" y="469" type="curve"/>
      <point x="199" y="469" type="line"/>
      <point x="208" y="538"/>
      <point x="240" y="583"/>
      <point x="240" y="616" type="curve" smooth="yes"/>
    </contour>
    <contour>
      <point x="146" y="315"/>
      <point x="168" y="305"/>
      <point x="192" y="305" type="curve" smooth="yes"/>
      <point x="217" y="305"/>
      <point x="240" y="316"/>
      <point x="240" y="340" type="curve" smooth="yes"/>
      <point x="240" y="374"/>
      <point x="208" y="417"/>
      <point x="199" y="486" type="curve"/>
      <point x="187" y="486" type="line"/>
      <point x="178" y="417"/>
      <point x="146" y="372"/>
      <point x="146" y="339" type="curve" smooth="yes"/>
    </contour>
    <contour>
      <point x="240" y="640"/>
      <point x="218" y="650"/>
      <point x="194" y="650" type="curve" smooth="yes"/>
      <point x="169" y="650"/>
      <point x="146" y="639"/>
      <point x="146" y="615" type="curve" smooth="yes"/>
      <point x="146" y="581"/>
      <point x="178" y="538"/>
      <point x="187" y="469" type="curve"/>
      <point x="199" y="469" type="line"/>
      <point x="208" y="538"/>
      <point x="240" y="583"/>
      <point x="240" y="616" type="curve" smooth="yes"/>
    </contour>
    <contour>
      <point x="146" y="315"/>
      <point x="168" y="305"/>
      <point x="192" y="305" type="curve" smooth="yes"/>
      <point x="217" y="305"/>
      <point x="240" y="316"/>
      <point x="240" y="340" type="curve" smooth="yes"/>
      <point x="240" y="374"/>
      <point x="208" y="417"/>
      <point x="199" y="486" type="curve"/>
      <point x="187" y="486" type="line"/>
      <point x="178" y="417"/>
      <point x="146" y="372"/>
      <point x="146" y="339" type="curve" smooth="yes"/>
    </contour>
    <contour>
      <point x="357" y="518"/>
      <point x="355" y="542"/>
      <point x="343" y="563" type="curve" smooth="yes"/>
      <point x="330" y="585"/>
      <point x="309" y="599"/>
      <point x="289" y="587" type="curve" smooth="yes"/>
      <point x="259" y="570"/>
      <point x="238" y="521"/>
      <point x="183" y="478" type="curve"/>
      <point x="189" y="468" type="line"/>
      <point x="253" y="495"/>
      <point x="308" y="490"/>
      <point x="336" y="506" type="curve" smooth="yes"/>
    </contour>
    <contour>
      <point x="29" y="437"/>
      <point x="31" y="413"/>
      <point x="43" y="392" type="curve" smooth="yes"/>
      <point x="56" y="370"/>
      <point x="77" y="356"/>
      <point x="97" y="368" type="curve" smooth="yes"/>
      <point x="127" y="385"/>
      <point x="148" y="434"/>
      <point x="203" y="477" type="curve"/>
      <point x="197" y="487" type="line"/>
      <point x="133" y="460"/>
      <point x="78" y="465"/>
      <point x="50" y="449" type="curve" smooth="yes"/>
    </contour>
    <contour>
      <point x="357" y="518"/>
      <point x="355" y="542"/>
      <point x="343" y="563" type="curve" smooth="yes"/>
      <point x="330" y="585"/>
      <point x="309" y="599"/>
      <point x="289" y="587" type="curve" smooth="yes"/>
      <point x="259" y="570"/>
      <point x="238" y="521"/>
      <point x="183" y="478" type="curve"/>
      <point x="189" y="468" type="line"/>
      <point x="253" y="495"/>
      <point x="308" y="490"/>
      <point x="336" y="506" type="curve" smooth="yes"/>
    </contour>
    <contour>
      <point x="29" y="437"/>
      <point x="31" y="413"/>
      <point x="43" y="392" type="curve" smooth="yes"/>
      <point x="56" y="370"/>
      <point x="77" y="356"/>
      <point x="97" y="368" type="curve" smooth="yes"/>
      <point x="127" y="385"/>
      <point x="148" y="434"/>
      <point x="203" y="477" type="curve"/>
      <point x="197" y="487" type="line"/>
      <point x="133" y="460"/>
      <point x="78" y="465"/>
      <point x="50" y="449" type="curve" smooth="yes"/>
    </contour>
    <contour>
      <point x="310" y="356"/>
      <point x="330" y="369"/>
      <point x="342" y="390" type="curve" smooth="yes"/>
      <point x="355" y="413"/>
      <point x="356" y="438"/>
      <point x="336" y="449" type="curve" smooth="yes"/>
      <point x="306" y="467"/>
      <point x="253" y="460"/>
      <point x="188" y="486" type="curve"/>
      <point x="183" y="476" type="line"/>
      <point x="238" y="434"/>
      <point x="261" y="384"/>
      <point x="289" y="368" type="curve" smooth="yes"/>
    </contour>
    <contour>
      <point x="76" y="599"/>
      <point x="56" y="586"/>
      <point x="44" y="565" type="curve" smooth="yes"/>
      <point x="31" y="542"/>
      <point x="30" y="517"/>
      <point x="50" y="506" type="curve" smooth="yes"/>
      <point x="80" y="488"/>
      <point x="133" y="495"/>
      <point x="198" y="469" type="curve"/>
      <point x="203" y="479" type="line"/>
      <point x="148" y="521"/>
      <point x="125" y="571"/>
      <point x="97" y="587" type="curve" smooth="yes"/>
    </contour>
    <contour>
      <point x="310" y="356"/>
      <point x="330" y="369"/>
      <point x="342" y="390" type="curve" smooth="yes"/>
      <point x="355" y="413"/>
      <point x="356" y="438"/>
      <point x="336" y="449" type="curve" smooth="yes"/>
      <point x="306" y="467"/>
      <point x="253" y="460"/>
      <point x="188" y="486" type="curve"/>
      <point x="183" y="476" type="line"/>
      <point x="238" y="434"/>
      <point x="261" y="384"/>
      <point x="289" y="368" type="curve" smooth="yes"/>
    </contour>
    <contour>
      <point x="76" y="599"/>
      <point x="56" y="586"/>
      <point x="44" y="565" type="curve" smooth="yes"/>
      <point x="31" y="542"/>
      <point x="30" y="517"/>
      <point x="50" y="506" type="curve" smooth="yes"/>
      <point x="80" y="488"/>
      <point x="133" y="495"/>
      <point x="198" y="469" type="curve"/>
      <point x="203" y="479" type="line"/>
      <point x="148" y="521"/>
      <point x="125" y="571"/>
      <point x="97" y="587" type="curve" smooth="yes"/>
    </contour>
  </outline>
</glyph>
<glyph name="slash" format="1">
  <advance width="431"/>
  <unicode hex="002F"/>
  <outline>
    <contour>
      <point x="75" y="-155" type="line"/>
      <point x="416" y="710" type="line"/>
      <point x="331" y="710" type="line"/>
      <point x="-10" y="-155" type="line"/>
    </contour>
  </outline>
</glyph>
<glyph name="zero" format="1">
  <advance width="578"/>
  <unicode hex="0030"/>
  <outline>
    <contour>
      <point x="543" y="443"/>
      <point x="451" y="550"/>
      <point x="293" y="550" type="curve" smooth="yes"/>
      <point x="133" y="550"/>
      <point x="35" y="437"/>
      <point x="35" y="272" type="curve" smooth="yes"/>
      <point x="35" y="102"/>
      <point x="128" y="-10"/>
      <point x="288" y="-10" type="curve" smooth="yes"/>
      <point x="447" y="-10"/>
      <point x="543" y="103"/>
      <point x="543" y="268" type="curve" smooth="yes"/>
    </contour>
    <contour>
      <point x="399" y="98"/>
      <point x="374" y="17"/>
      <point x="291" y="17" type="curve" smooth="yes"/>
      <point x="208" y="17"/>
      <point x="179" y="88"/>
      <point x="179" y="268" type="curve" smooth="yes"/>
      <point x="179" y="438"/>
      <point x="207" y="523"/>
      <point x="290" y="523" type="curve" smooth="yes"/>
      <point x="371" y="523"/>
      <point x="399" y="440"/>
      <point x="399" y="273" type="curve" smooth="yes"/>
    </contour>
  </outline>
</glyph>
<glyph name="two" format="1">
  <advance width="493"/>
  <unicode hex="0032"/>
  <outline>
    <contour>
      <point x="84" y="92" type="line"/>
      <point x="84" y="199"/>
      <point x="429" y="225"/>
      <point x="429" y="403" type="curve" smooth="yes"/>
      <point x="429" y="512"/>
      <point x="323" y="551"/>
      <point x="223" y="551" type="curve" smooth="yes"/>
      <point x="127" y="551"/>
      <point x="33" y="512"/>
      <point x="33" y="425" type="curve" smooth="yes"/>
      <point x="33" y="385"/>
      <point x="55" y="356"/>
      <point x="92" y="356" type="curve" smooth="yes"/>
      <point x="212" y="356"/>
      <point x="104" y="525"/>
      <point x="215" y="525" type="curve" smooth="yes"/>
      <point x="268" y="525"/>
      <point x="294" y="476"/>
      <point x="294" y="412" type="curve" smooth="yes"/>
      <point x="294" y="169"/>
      <point x="30" y="246"/>
      <point x="30" y="29" type="curve"/>
    </contour>
    <contour>
      <point x="437" y="0" type="line"/>
      <point x="437" y="92" type="line"/>
      <point x="84" y="92" type="line"/>
      <point x="30" y="29" type="line"/>
      <point x="30" y="0" type="line"/>
    </contour>
    <contour>
      <point x="438" y="180" type="line"/>
      <point x="415" y="180" type="line"/>
      <point x="397" y="136" type="line" smooth="yes"/>
      <point x="380" y="94"/>
      <point x="362" y="92"/>
      <point x="323" y="92" type="curve"/>
      <point x="437" y="0" type="line"/>
    </contour>
  </outline>
</glyph>
<glyph name="three" format="1">
  <advance width="539"/>
  <unicode hex="0033"/>
  <outline>
    <contour>
      <point x="409" y="-70"/>
      <point x="501" y="21"/>
      <point x="501" y="128" type="curve" smooth="yes"/>
      <point x="501" y="206"/>
      <point x="439" y="276"/>
      <point x="307" y="276" type="curve" smooth="yes"/>
      <point x="264" y="276"/>
      <point x="219" y="267"/>
      <point x="178" y="250" type="curve"/>
      <point x="204" y="229" type="line"/>
      <point x="228" y="239"/>
      <point x="252" y="243"/>
      <point x="271" y="243" type="curve" smooth="yes"/>
      <point x="344" y="243"/>
      <point x="370" y="181"/>
      <point x="370" y="114" type="curve" smooth="yes"/>
      <point x="370" y="23"/>
      <point x="337" y="-43"/>
      <point x="234" y="-43" type="curve" smooth="yes"/>
      <point x="106" y="-43"/>
      <point x="215" y="122"/>
      <point x="103" y="122" type="curve" smooth="yes"/>
      <point x="60" y="122"/>
      <point x="39" y="94"/>
      <point x="39" y="58" type="curve" smooth="yes"/>
      <point x="39" y="-29"/>
      <point x="134" y="-70"/>
      <point x="244" y="-70" type="curve" smooth="yes"/>
    </contour>
    <contour>
      <point x="94" y="357" type="line"/>
      <point x="112" y="403" type="line" smooth="yes"/>
      <point x="129" y="446"/>
      <point x="149" y="448"/>
      <point x="190" y="448" type="curve"/>
      <point x="71" y="540" type="line"/>
      <point x="69" y="357" type="line"/>
    </contour>
    <contour>
      <point x="474" y="513" type="line"/>
      <point x="351" y="448" type="line"/>
      <point x="178" y="250" type="line"/>
      <point x="204" y="229" type="line"/>
    </contour>
    <contour>
      <point x="351" y="448" type="line"/>
      <point x="474" y="513" type="line"/>
      <point x="474" y="540" type="line"/>
      <point x="71" y="540" type="line"/>
      <point x="71" y="448" type="line"/>
    </contour>
  </outline>
</glyph>
<glyph name="four" format="1">
  <advance width="532"/>
  <unicode hex="0034"/>
  <outline>
    <contour>
      <point x="177" y="227"/>
      <point x="405" y="384"/>
      <point x="405" y="485" type="curve" smooth="yes"/>
      <point x="405" y="528"/>
      <point x="371" y="550"/>
      <point x="329" y="550" type="curve" smooth="yes"/>
      <point x="192" y="550"/>
      <point x="314" y="365"/>
      <point x="5" y="118" type="curve"/>
      <point x="41" y="110" type="line"/>
    </contour>
    <contour>
      <point x="489" y="-65" type="line"/>
      <point x="489" y="-42"/>
      <point x="484" y="-38"/>
      <point x="465" y="-38" type="curve" smooth="yes"/>
      <point x="159" y="-38" type="line"/>
      <point x="159" y="-65" type="line"/>
    </contour>
    <contour>
      <point x="489" y="116" type="line"/>
      <point x="5" y="118" type="line"/>
      <point x="11" y="88" type="line"/>
      <point x="489" y="86" type="line"/>
    </contour>
    <contour>
      <point x="402" y="-65" type="line"/>
      <point x="402" y="328" type="line"/>
      <point x="379" y="328" type="line"/>
      <point x="365" y="285" type="line" smooth="yes"/>
      <point x="351" y="242"/>
      <point x="326" y="237"/>
      <point x="285" y="237" type="curve" smooth="yes"/>
      <point x="273" y="237" type="line"/>
      <point x="273" y="-65" type="line"/>
    </contour>
  </outline>
</glyph>
<glyph name="five" format="1">
  <advance width="523"/>
  <unicode hex="0035"/>
  <outline>
    <contour>
      <point x="357" y="-70"/>
      <point x="488" y="-10"/>
      <point x="488" y="128" type="curve" smooth="yes"/>
      <point x="488" y="248"/>
      <point x="389" y="306"/>
      <point x="275" y="306" type="curve" smooth="yes"/>
      <point x="216" y="306"/>
      <point x="161" y="287"/>
      <point x="110" y="250" type="curve"/>
      <point x="131" y="222" type="line"/>
      <point x="170" y="254"/>
      <point x="209" y="266"/>
      <point x="241" y="266" type="curve" smooth="yes"/>
      <point x="313" y="266"/>
      <point x="359" y="214"/>
      <point x="359" y="118" type="curve" smooth="yes"/>
      <point x="359" y="43"/>
      <point x="331" y="-43"/>
      <point x="240" y="-43" type="curve" smooth="yes"/>
      <point x="116" y="-43"/>
      <point x="233" y="120"/>
      <point x="115" y="120" type="curve" smooth="yes"/>
      <point x="75" y="120"/>
      <point x="51" y="95"/>
      <point x="51" y="57" type="curve" smooth="yes"/>
      <point x="51" y="-31"/>
      <point x="141" y="-70"/>
      <point x="236" y="-70" type="curve" smooth="yes"/>
    </contour>
    <contour>
      <point x="131" y="518" type="line"/>
      <point x="97" y="518" type="line"/>
      <point x="97" y="248" type="line"/>
      <point x="131" y="222" type="line"/>
    </contour>
    <contour>
      <point x="418" y="436"/>
      <point x="439" y="462"/>
      <point x="439" y="582" type="curve"/>
      <point x="412" y="582" type="line"/>
      <point x="399" y="546"/>
      <point x="381" y="535"/>
      <point x="315" y="535" type="curve" smooth="yes"/>
      <point x="270" y="535"/>
      <point x="197" y="540"/>
      <point x="97" y="544" type="curve"/>
      <point x="97" y="449" type="line"/>
      <point x="162" y="440"/>
      <point x="227" y="436"/>
      <point x="272" y="436" type="curve" smooth="yes"/>
    </contour>
  </outline>
</glyph>
<glyph name="nine" format="1">
  <advance width="564"/>
  <unicode hex="0039"/>
  <outline>
    <contour>
      <point x="424" y="-70"/>
      <point x="509" y="88"/>
      <point x="509" y="264" type="curve" smooth="yes"/>
      <point x="509" y="450"/>
      <point x="416" y="550"/>
      <point x="272" y="550" type="curve" smooth="yes"/>
      <point x="120" y="550"/>
      <point x="35" y="471"/>
      <point x="35" y="360" type="curve" smooth="yes"/>
      <point x="35" y="252"/>
      <point x="116" y="184"/>
      <point x="252" y="184" type="curve" smooth="yes"/>
      <point x="316" y="184"/>
      <point x="374" y="207"/>
      <point x="417" y="256" type="curve"/>
      <point x="374" y="257" type="line"/>
      <point x="374" y="96"/>
      <point x="363" y="-45"/>
      <point x="252" y="-45" type="curve" smooth="yes"/>
      <point x="130" y="-45"/>
      <point x="228" y="113"/>
      <point x="117" y="113" type="curve" smooth="yes"/>
      <point x="73" y="113"/>
      <point x="50" y="83"/>
      <point x="50" y="51" type="curve" smooth="yes"/>
      <point x="50" y="-25"/>
      <point x="142" y="-70"/>
      <point x="246" y="-70" type="curve" smooth="yes"/>
    </contour>
    <contour>
      <point x="200" y="217"/>
      <point x="167" y="267"/>
      <point x="167" y="377" type="curve" smooth="yes"/>
      <point x="167" y="478"/>
      <point x="203" y="525"/>
      <point x="269" y="525" type="curve" smooth="yes"/>
      <point x="336" y="525"/>
      <point x="374" y="475"/>
      <point x="374" y="366" type="curve" smooth="yes"/>
      <point x="374" y="264"/>
      <point x="334" y="217"/>
      <point x="268" y="217" type="curve" smooth="yes"/>
    </contour>
  </outline>
</glyph>
<glyph name="less" format="1">
  <advance width="442"/>
  <unicode hex="003C"/>
  <outline>
    <contour>
      <point x="393" y="65" type="line"/>
      <point x="412" y="108" type="line"/>
      <point x="74" y="250" type="line"/>
      <point x="74" y="222" type="line"/>
      <point x="412" y="365" type="line"/>
      <point x="396" y="405" type="line"/>
      <point x="30" y="252" type="line"/>
      <point x="30" y="218" type="line"/>
    </contour>
  </outline>
</glyph>
<glyph name="at" format="1">
  <advance width="898"/>
  <unicode hex="0040"/>
  <outline>
    <contour>
      <point x="535" y="-171"/>
      <point x="613" y="-154"/>
      <point x="685" y="-118" type="curve"/>
      <point x="673" y="-92" type="line"/>
      <point x="613" y="-121"/>
      <point x="553" y="-134"/>
      <point x="496" y="-134" type="curve" smooth="yes"/>
      <point x="317" y="-134"/>
      <point x="170" y="1"/>
      <point x="170" y="217" type="curve" smooth="yes"/>
      <point x="170" y="444"/>
      <point x="291" y="554"/>
      <point x="454" y="554" type="curve" smooth="yes"/>
      <point x="620" y="554"/>
      <point x="748" y="439"/>
      <point x="748" y="212" type="curve" smooth="yes"/>
      <point x="748" y="115"/>
      <point x="717" y="35"/>
      <point x="668" y="35" type="curve" smooth="yes"/>
      <point x="643" y="35"/>
      <point x="633" y="58"/>
      <point x="633" y="88" type="curve" smooth="yes"/>
      <point x="633" y="275" type="line" smooth="yes"/>
      <point x="633" y="375"/>
      <point x="567" y="424"/>
      <point x="465" y="424" type="curve" smooth="yes"/>
      <point x="357" y="424"/>
      <point x="301" y="389"/>
      <point x="301" y="342" type="curve" smooth="yes"/>
      <point x="301" y="313"/>
      <point x="323" y="294"/>
      <point x="352" y="294" type="curve" smooth="yes"/>
      <point x="435" y="294"/>
      <point x="387" y="400"/>
      <point x="458" y="400" type="curve" smooth="yes"/>
      <point x="500" y="400"/>
      <point x="509" y="369"/>
      <point x="509" y="303" type="curve" smooth="yes"/>
      <point x="509" y="131" type="line"/>
      <point x="494" y="78"/>
      <point x="470" y="56"/>
      <point x="444" y="56" type="curve" smooth="yes"/>
      <point x="418" y="56"/>
      <point x="402" y="75"/>
      <point x="402" y="131" type="curve" smooth="yes"/>
      <point x="402" y="192"/>
      <point x="432" y="219"/>
      <point x="527" y="219" type="curve"/>
      <point x="527" y="245" type="line"/>
      <point x="358" y="245"/>
      <point x="274" y="203"/>
      <point x="274" y="121" type="curve" smooth="yes"/>
      <point x="274" y="47"/>
      <point x="323" y="11"/>
      <point x="397" y="11" type="curve" smooth="yes"/>
      <point x="455" y="11"/>
      <point x="502" y="41"/>
      <point x="519" y="98" type="curve"/>
      <point x="516" y="98" type="line"/>
      <point x="524" y="41"/>
      <point x="557" y="10"/>
      <point x="652" y="10" type="curve" smooth="yes"/>
      <point x="783" y="10"/>
      <point x="848" y="116"/>
      <point x="848" y="237" type="curve" smooth="yes"/>
      <point x="848" y="468"/>
      <point x="676" y="584"/>
      <point x="461" y="584" type="curve" smooth="yes"/>
      <point x="235" y="584"/>
      <point x="45" y="456"/>
      <point x="45" y="192" type="curve" smooth="yes"/>
      <point x="45" y="-34"/>
      <point x="243" y="-171"/>
      <point x="459" y="-171" type="curve" smooth="yes"/>
    </contour>
  </outline>
</glyph>
<glyph name="D" format="1">
  <advance width="664"/>
  <unicode hex="0044"/>
  <outline>
    <contour>
      <point x="476" y="0"/>
      <point x="629" y="103"/>
      <point x="629" y="298" type="curve" smooth="yes"/>
      <point x="629" y="503"/>
      <point x="474" y="600"/>
      <point x="309" y="600" type="curve"/>
      <point x="312" y="573" type="line"/>
      <point x="420" y="573"/>
      <point x="472" y="500"/>
      <point x="472" y="303" type="curve" smooth="yes"/>
      <point x="472" y="98"/>
      <point x="418" y="27"/>
      <point x="310" y="27" type="curve"/>
      <point x="312" y="0" type="line"/>
    </contour>
    <contour>
      <point x="312" y="0" type="line"/>
      <point x="310" y="27" type="line"/>
      <point x="25" y="27" type="line"/>
      <point x="25" y="0" type="line"/>
    </contour>
    <contour>
      <point x="312" y="573" type="line"/>
      <point x="309" y="600" type="line"/>
      <point x="25" y="600" type="line"/>
      <point x="25" y="573" type="line"/>
    </contour>
    <component base="vertical_stem_upper" xOffset="52"/>
    <contour>
      <point x="332" y="350" type="move" name="center"/>
    </contour>
    <contour>
      <point x="322" y="630" type="move" name="top"/>
    </contour>
  </outline>
</glyph>
<glyph name="N" format="1">
  <advance width="668"/>
  <unicode hex="004E"/>
  <outline>
    <contour>
      <point x="229" y="0" type="line"/>
      <point x="229" y="23"/>
      <point x="224" y="27"/>
      <point x="205" y="27" type="curve" smooth="yes"/>
      <point x="139" y="27" type="line"/>
      <point x="139" y="600" type="line"/>
      <point x="30" y="600" type="line"/>
      <point x="30" y="573" type="line"/>
      <point x="97" y="573" type="line"/>
      <point x="97" y="27" type="line"/>
      <point x="30" y="27" type="line"/>
      <point x="30" y="0" type="line"/>
    </contour>
    <contour>
      <point x="581" y="573" type="line"/>
      <point x="648" y="573" type="line"/>
      <point x="648" y="600" type="line"/>
      <point x="459" y="600" type="line"/>
      <point x="459" y="573" type="line"/>
      <point x="539" y="573" type="line"/>
      <point x="539" y="5" type="line"/>
      <point x="581" y="5" type="line"/>
    </contour>
    <contour>
      <point x="581" y="5" type="line"/>
      <point x="581" y="141" type="line"/>
      <point x="186" y="600" type="line"/>
      <point x="106" y="600" type="line"/>
      <point x="106" y="483" type="line"/>
      <point x="524" y="-5" type="line"/>
    </contour>
    <contour>
      <point x="337" y="630" type="move" name="top"/>
    </contour>
    <contour>
      <point x="334" y="0" type="move" name="bottom"/>
    </contour>
  </outline>
</glyph>
<glyph name="P" format="1">
  <advance width="585"/>
  <unicode hex="0050"/>
  <outline>
    <contour>
      <point x="20" y="600" type="line"/>
      <point x="20" y="573" type="line"/>
      <point x="295" y="573" type="line" smooth="yes"/>
      <point x="377" y="573"/>
      <point x="400" y="508"/>
      <point x="400" y="433" type="curve" smooth="yes"/>
      <point x="400" y="353"/>
      <point x="371" y="294"/>
      <point x="291" y="294" type="curve" smooth="yes"/>
      <point x="138" y="294" type="line"/>
      <point x="138" y="264" type="line"/>
      <point x="320" y="264" type="line" smooth="yes"/>
      <point x="483" y="264"/>
      <point x="550" y="342"/>
      <point x="550" y="442" type="curve" smooth="yes"/>
      <point x="550" y="532"/>
      <point x="484" y="600"/>
      <point x="352" y="600" type="curve" smooth="yes"/>
    </contour>
    <contour>
      <point x="356" y="0" type="line"/>
      <point x="356" y="23"/>
      <point x="351" y="27"/>
      <point x="332" y="27" type="curve" smooth="yes"/>
      <point x="20" y="27" type="line"/>
      <point x="20" y="0" type="line"/>
    </contour>
    <component base="vertical_stem_upper" xOffset="56"/>
  </outline>
</glyph>
<glyph name="Q" format="1">
  <advance width="704"/>
  <unicode hex="0051"/>
  <outline>
    <contour>
      <point x="669" y="503"/>
      <point x="520" y="610"/>
      <point x="355" y="610" type="curve" smooth="yes"/>
      <point x="190" y="610"/>
      <point x="35" y="497"/>
      <point x="35" y="302" type="curve" smooth="yes"/>
      <point x="35" y="102"/>
      <point x="187" y="-10"/>
      <point x="352" y="-10" type="curve" smooth="yes"/>
      <point x="516" y="-10"/>
      <point x="669" y="103"/>
      <point x="669" y="298" type="curve" smooth="yes"/>
    </contour>
    <contour>
      <point x="512" y="98"/>
      <point x="463" y="19"/>
      <point x="355" y="19" type="curve" smooth="yes"/>
      <point x="247" y="19"/>
      <point x="192" y="88"/>
      <point x="192" y="298" type="curve" smooth="yes"/>
      <point x="192" y="498"/>
      <point x="244" y="581"/>
      <point x="352" y="581" type="curve" smooth="yes"/>
      <point x="460" y="581"/>
      <point x="512" y="500"/>
      <point x="512" y="303" type="curve" smooth="yes"/>
    </contour>
    <contour>
      <point x="272" y="58"/>
      <point x="298" y="79"/>
      <point x="323" y="79" type="curve" smooth="yes"/>
      <point x="386" y="79"/>
      <point x="427" y="-107"/>
      <point x="560" y="-107" type="curve" smooth="yes"/>
      <point x="630" y="-107"/>
      <point x="690" y="-44"/>
      <point x="735" y="49" type="curve"/>
      <point x="711" y="66" type="line"/>
      <point x="672" y="27"/>
      <point x="631" y="6"/>
      <point x="590" y="6" type="curve" smooth="yes"/>
      <point x="493" y="6"/>
      <point x="432" y="128"/>
      <point x="344" y="128" type="curve" smooth="yes"/>
      <point x="295" y="128"/>
      <point x="251" y="87"/>
      <point x="225" y="39" type="curve"/>
      <point x="244" y="23" type="line"/>
    </contour>
  </outline>
</glyph>
<glyph name="S" format="1">
  <advance width="542"/>
  <unicode hex="0053"/>
  <outline>
    <contour>
      <point x="91" y="93"/>
      <point x="157" y="19"/>
      <point x="260" y="19" type="curve" smooth="yes"/>
      <point x="331" y="19"/>
      <point x="375" y="59"/>
      <point x="375" y="123" type="curve" smooth="yes"/>
      <point x="375" y="272"/>
      <point x="54" y="266"/>
      <point x="54" y="452" type="curve" smooth="yes"/>
      <point x="54" y="563"/>
      <point x="155" y="614"/>
      <point x="264" y="614" type="curve" smooth="yes"/>
      <point x="329" y="614"/>
      <point x="394" y="600"/>
      <point x="448" y="571" type="curve"/>
      <point x="448" y="606"/>
      <point x="453" y="619"/>
      <point x="478" y="619" type="curve"/>
      <point x="478" y="425" type="line"/>
      <point x="449" y="425" type="line"/>
      <point x="451" y="533"/>
      <point x="367" y="585"/>
      <point x="302" y="585" type="curve" smooth="yes"/>
      <point x="248" y="585"/>
      <point x="199" y="552"/>
      <point x="199" y="498" type="curve" smooth="yes"/>
      <point x="199" y="345"/>
      <point x="512" y="354"/>
      <point x="512" y="167" type="curve" smooth="yes"/>
      <point x="512" y="46"/>
      <point x="393" y="-10"/>
      <point x="270" y="-10" type="curve" smooth="yes"/>
      <point x="204" y="-10"/>
      <point x="134" y="5"/>
      <point x="80" y="41" type="curve"/>
      <point x="80" y="5"/>
      <point x="78" y="-2"/>
      <point x="50" y="-2" type="curve"/>
      <point x="50" y="210" type="line"/>
      <point x="83" y="210" type="line"/>
    </contour>
    <contour>
      <point x="297" y="630" type="move" name="top"/>
    </contour>
    <contour>
      <point x="289" y="0" type="move" name="bottom"/>
    </contour>
  </outline>
</glyph>
<glyph name="U" format="1">
  <advance width="658"/>
  <unicode hex="0055"/>
  <outline>
    <contour>
      <point x="563" y="600" type="line"/>
      <point x="563" y="234" type="line"/>
      <point x="526" y="228" type="line"/>
      <point x="526" y="600" type="line"/>
    </contour>
    <contour>
      <point x="273" y="20"/>
      <point x="230" y="83"/>
      <point x="230" y="228" type="curve"/>
      <point x="91" y="220" type="line"/>
      <point x="91" y="54"/>
      <point x="189" y="-10"/>
      <point x="344" y="-10" type="curve" smooth="yes"/>
      <point x="499" y="-10"/>
      <point x="563" y="69"/>
      <point x="563" y="234" type="curve"/>
      <point x="526" y="228" type="line"/>
      <point x="526" y="78"/>
      <point x="465" y="20"/>
      <point x="365" y="20" type="curve" smooth="yes"/>
    </contour>
    <contour>
      <point x="230" y="600" type="line"/>
      <point x="230" y="228" type="line"/>
      <point x="91" y="220" type="line"/>
      <point x="91" y="600" type="line"/>
    </contour>
    <contour>
      <point x="25" y="573" type="line"/>
      <point x="25" y="600" type="line"/>
      <point x="299" y="600" type="line"/>
      <point x="299" y="573" type="line"/>
    </contour>
    <contour>
      <point x="429" y="573" type="line"/>
      <point x="429" y="600" type="line"/>
      <point x="638" y="600" type="line"/>
      <point x="638" y="573" type="line"/>
    </contour>
    <contour>
      <point x="492" y="9" type="move" name="ogonek"/>
    </contour>
    <contour>
      <point x="349" y="630" type="move" name="top"/>
    </contour>
  </outline>
</glyph>
<glyph name="Y" format="1">
  <advance width="588"/>
  <unicode hex="0059"/>
  <outline>
    <contour>
      <point x="370" y="261" type="line"/>
      <point x="194" y="600" type="line"/>
      <point x="36" y="600" type="line"/>
      <point x="230" y="254" type="line"/>
    </contour>
    <contour>
      <point x="447" y="0" type="line"/>
      <point x="447" y="23"/>
      <point x="442" y="27"/>
      <point x="423" y="27" type="curve" smooth="yes"/>
      <point x="149" y="27" type="line"/>
      <point x="149" y="0" type="line"/>
    </contour>
    <contour>
      <point x="369" y="0" type="line"/>
      <point x="370" y="261" type="line"/>
      <point x="230" y="254" type="line"/>
      <point x="229" y="0" type="line"/>
    </contour>
    <contour>
      <point x="283" y="573" type="line"/>
      <point x="283" y="600" type="line"/>
      <point x="9" y="600" type="line"/>
      <point x="9" y="573" type="line"/>
    </contour>
    <contour>
      <point x="370" y="261" type="line"/>
      <point x="508" y="545" type="line" smooth="yes"/>
      <point x="517" y="564"/>
      <point x="524" y="573"/>
      <point x="569" y="573" type="curve" smooth="yes"/>
      <point x="583" y="573"/>
      <point x="588" y="579"/>
      <point x="588" y="600" type="curve"/>
      <point x="404" y="600" type="line"/>
      <point x="404" y="573" type="line"/>
      <point x="489" y="573" type="line"/>
      <point x="335" y="261" type="line"/>
    </contour>
    <contour>
      <point x="324" y="630" type="move" name="top"/>
    </contour>
  </outline>
</glyph>
<glyph name="asciicircum" format="1">
  <advance width="513"/>
  <unicode hex="005E"/>
  <outline>
    <contour>
      <point x="65" y="335" type="line"/>
      <point x="100" y="312" type="line"/>
      <point x="261" y="573" type="line"/>
      <point x="253" y="573" type="line"/>
      <point x="413" y="312" type="line"/>
      <point x="448" y="335" type="line"/>
      <point x="269" y="624" type="line"/>
      <point x="245" y="624" type="line"/>
    </contour>
  </outline>
</glyph>
<glyph name="a" format="1">
  <advance width="493"/>
  <unicode hex="0061"/>
  <outline>
    <contour>
      <point x="213" y="-10"/>
      <point x="270" y="27"/>
      <point x="289" y="89" type="curve"/>
      <point x="286" y="89" type="line"/>
      <point x="295" y="27"/>
      <point x="328" y="-10"/>
      <point x="388" y="-10" type="curve" smooth="yes"/>
      <point x="469" y="-10"/>
      <point x="483" y="32"/>
      <point x="488" y="94" type="curve"/>
      <point x="462" y="95" type="line"/>
      <point x="458" y="45"/>
      <point x="444" y="24"/>
      <point x="427" y="24" type="curve" smooth="yes"/>
      <point x="411" y="24"/>
      <point x="405" y="42"/>
      <point x="405" y="75" type="curve" smooth="yes"/>
      <point x="405" y="284" type="line" smooth="yes"/>
      <point x="405" y="401"/>
      <point x="323" y="445"/>
      <point x="224" y="445" type="curve" smooth="yes"/>
      <point x="105" y="445"/>
      <point x="44" y="406"/>
      <point x="44" y="354" type="curve" smooth="yes"/>
      <point x="44" y="322"/>
      <point x="68" y="302"/>
      <point x="100" y="302" type="curve" smooth="yes"/>
      <point x="191" y="302"/>
      <point x="138" y="419"/>
      <point x="217" y="419" type="curve" smooth="yes"/>
      <point x="263" y="419"/>
      <point x="278" y="384"/>
      <point x="278" y="312" type="curve" smooth="yes"/>
      <point x="278" y="122" type="line"/>
      <point x="262" y="64"/>
      <point x="230" y="33"/>
      <point x="201" y="33" type="curve" smooth="yes"/>
      <point x="169" y="33"/>
      <point x="150" y="61"/>
      <point x="150" y="122" type="curve" smooth="yes"/>
      <point x="150" y="189"/>
      <point x="184" y="219"/>
      <point x="293" y="219" type="curve"/>
      <point x="293" y="247" type="line"/>
      <point x="109" y="247"/>
      <point x="20" y="201"/>
      <point x="20" y="111" type="curve" smooth="yes"/>
      <point x="20" y="30"/>
      <point x="74" y="-10"/>
      <point x="149" y="-10" type="curve" smooth="yes"/>
    </contour>
    <contour>
      <point x="454" y="9" type="move" name="ogonek"/>
    </contour>
    <contour>
      <point x="247" y="500" type="move" name="top"/>
    </contour>
  </outline>
</glyph>
<glyph name="b" format="1">
  <advance width="556"/>
  <unicode hex="0062"/>
  <outline>
    <contour>
      <point x="179" y="93" type="line"/>
      <point x="163" y="93" type="line"/>
      <point x="196" y="22"/>
      <point x="253" y="-10"/>
      <point x="323" y="-10" type="curve" smooth="yes"/>
      <point x="426" y="-10"/>
      <point x="528" y="70"/>
      <point x="528" y="229" type="curve" smooth="yes"/>
      <point x="528" y="370"/>
      <point x="447" y="445"/>
      <point x="354" y="445" type="curve" smooth="yes"/>
      <point x="285" y="445"/>
      <point x="222" y="407"/>
      <point x="186" y="314" type="curve"/>
      <point x="199" y="314" type="line"/>
      <point x="199" y="650" type="line"/>
      <point x="15" y="650" type="line"/>
      <point x="15" y="625" type="line"/>
      <point x="72" y="625" type="line"/>
      <point x="72" y="78" type="line" smooth="yes"/>
      <point x="72" y="38"/>
      <point x="55" y="26"/>
      <point x="15" y="26" type="curve"/>
      <point x="15" y="0" type="line"/>
      <point x="168" y="0" type="line"/>
    </contour>
    <contour>
      <point x="199" y="316"/>
      <point x="239" y="397"/>
      <point x="305" y="397" type="curve" smooth="yes"/>
      <point x="365" y="397"/>
      <point x="391" y="331"/>
      <point x="391" y="215" type="curve" smooth="yes"/>
      <point x="391" y="88"/>
      <point x="360" y="17"/>
      <point x="298" y="17" type="curve" smooth="yes"/>
      <point x="244" y="17"/>
      <point x="199" y="68"/>
      <point x="199" y="196" type="curve" smooth="yes"/>
    </contour>
  </outline>
</glyph>
<glyph name="f" format="1">
  <advance width="351"/>
  <unicode hex="0066"/>
  <outline>
    <contour>
      <point x="323" y="22"/>
      <point x="318" y="26"/>
      <point x="299" y="26" type="curve" smooth="yes"/>
      <point x="228" y="26" type="line"/>
      <point x="228" y="435" type="line"/>
      <point x="101" y="443" type="line"/>
      <point x="101" y="78" type="line" smooth="yes"/>
      <point x="101" y="36"/>
      <point x="67" y="26"/>
      <point x="25" y="26" type="curve"/>
      <point x="25" y="0" type="line"/>
      <point x="323" y="0" type="line"/>
    </contour>
    <contour>
      <point x="423" y="517"/>
      <point x="446" y="539"/>
      <point x="446" y="566" type="curve" smooth="yes"/>
      <point x="446" y="608"/>
      <point x="400" y="655"/>
      <point x="302" y="655" type="curve" smooth="yes"/>
      <point x="199" y="655"/>
      <point x="101" y="598"/>
      <point x="101" y="443" type="curve"/>
      <point x="228" y="435" type="line"/>
      <point x="228" y="585"/>
      <point x="239" y="629"/>
      <point x="282" y="629" type="curve" smooth="yes"/>
      <point x="337" y="629"/>
      <point x="321" y="517"/>
      <point x="389" y="517" type="curve" smooth="yes"/>
    </contour>
    <contour>
      <point x="20" y="403" type="line"/>
      <point x="341" y="403" type="line"/>
      <point x="341" y="430" type="line"/>
      <point x="20" y="430" type="line"/>
    </contour>
  </outline>
</glyph>
<glyph name="g" format="1">
  <advance width="501"/>
  <unicode hex="0067"/>
  <outline>
    <contour>
      <point x="174" y="134"/>
      <point x="170" y="183"/>
      <point x="170" y="276" type="curve" smooth="yes"/>
      <point x="170" y="372"/>
      <point x="178" y="419"/>
      <point x="239" y="419" type="curve" smooth="yes"/>
      <point x="303" y="419"/>
      <point x="309" y="372"/>
      <point x="309" y="279" type="curve" smooth="yes"/>
      <point x="309" y="183"/>
      <point x="300" y="134"/>
      <point x="238" y="134" type="curve" smooth="yes"/>
    </contour>
    <contour>
      <point x="436" y="369"/>
      <point x="368" y="445"/>
      <point x="243" y="445" type="curve" smooth="yes"/>
      <point x="118" y="445"/>
      <point x="43" y="371"/>
      <point x="43" y="279" type="curve" smooth="yes"/>
      <point x="43" y="187"/>
      <point x="143" y="108"/>
      <point x="238" y="108" type="curve" smooth="yes"/>
      <point x="362" y="108"/>
      <point x="436" y="190"/>
      <point x="436" y="281" type="curve" smooth="yes"/>
    </contour>
    <contour>
      <point x="377" y="327"/>
      <point x="372" y="341"/>
      <point x="372" y="362" type="curve" smooth="yes"/>
      <point x="372" y="400"/>
      <point x="396" y="430"/>
      <point x="423" y="430" type="curve" smooth="yes"/>
      <point x="449" y="430"/>
      <point x="456" y="401"/>
      <point x="483" y="401" type="curve" smooth="yes"/>
      <point x="508" y="401"/>
      <point x="521" y="420"/>
      <point x="521" y="439" type="curve" smooth="yes"/>
      <point x="521" y="466"/>
      <point x="499" y="497"/>
      <point x="451" y="497" type="curve" smooth="yes"/>
      <point x="396" y="497"/>
      <point x="352" y="436"/>
      <point x="352" y="351" type="curve" smooth="yes"/>
      <point x="352" y="345"/>
      <point x="352" y="339"/>
      <point x="353" y="333" type="curve"/>
      <point x="384" y="312" type="line"/>
    </contour>
    <contour>
      <point x="139" y="135" type="line" smooth="yes"/>
      <point x="79" y="136"/>
      <point x="49" y="87"/>
      <point x="49" y="43" type="curve" smooth="yes"/>
      <point x="49" y="-3"/>
      <point x="83" y="-57"/>
      <point x="152" y="-58" type="curve" smooth="yes"/>
      <point x="354" y="-60" type="line" smooth="yes"/>
      <point x="404" y="-60"/>
      <point x="426" y="-65"/>
      <point x="426" y="-95" type="curve" smooth="yes"/>
      <point x="426" y="-143"/>
      <point x="344" y="-168"/>
      <point x="247" y="-168" type="curve" smooth="yes"/>
      <point x="143" y="-168"/>
      <point x="95" y="-134"/>
      <point x="95" y="-92" type="curve" smooth="yes"/>
      <point x="95" y="-69"/>
      <point x="109" y="-44"/>
      <point x="137" y="-20" type="curve"/>
      <point x="114" y="-9" type="line"/>
      <point x="79" y="-36"/>
      <point x="60" y="-67"/>
      <point x="60" y="-96" type="curve" smooth="yes"/>
      <point x="60" y="-149"/>
      <point x="121" y="-195"/>
      <point x="247" y="-195" type="curve" smooth="yes"/>
      <point x="410" y="-195"/>
      <point x="474" y="-132"/>
      <point x="474" y="-68" type="curve" smooth="yes"/>
      <point x="474" y="7"/>
      <point x="425" y="47"/>
      <point x="337" y="49" type="curve" smooth="yes"/>
      <point x="130" y="53" type="line" smooth="yes"/>
      <point x="109" y="54"/>
      <point x="98" y="69"/>
      <point x="98" y="82" type="curve" smooth="yes"/>
      <point x="98" y="96"/>
      <point x="109" y="109"/>
      <point x="131" y="109" type="curve" smooth="yes"/>
      <point x="238" y="108" type="line"/>
      <point x="196" y="135" type="line"/>
    </contour>
    <contour>
      <point x="251" y="500" type="move" name="top"/>
    </contour>
  </outline>
</glyph>
<glyph name="h" format="1">
  <advance width="562"/>
  <unicode hex="0068"/>
  <outline>
    <contour>
      <point x="489" y="282" type="line" smooth="yes"/>
      <point x="489" y="401"/>
      <point x="424" y="445"/>
      <point x="352" y="445" type="curve" smooth="yes"/>
      <point x="283" y="445"/>
      <point x="228" y="405"/>
      <point x="205" y="353" type="curve"/>
      <point x="206" y="266" type="line"/>
      <point x="206" y="356"/>
      <point x="255" y="392"/>
      <point x="293" y="392" type="curve" smooth="yes"/>
      <point x="338" y="392"/>
      <point x="362" y="358"/>
      <point x="362" y="299" type="curve" smooth="yes"/>
      <point x="362" y="78" type="line" smooth="yes"/>
      <point x="362" y="38"/>
      <point x="359" y="26"/>
      <point x="323" y="26" type="curve"/>
      <point x="323" y="0" type="line"/>
      <point x="547" y="0" type="line"/>
      <point x="547" y="22"/>
      <point x="542" y="26"/>
      <point x="522" y="26" type="curve" smooth="yes"/>
      <point x="489" y="26" type="line"/>
    </contour>
    <contour>
      <point x="255" y="22"/>
      <point x="250" y="26"/>
      <point x="231" y="26" type="curve" smooth="yes"/>
      <point x="206" y="26" type="line"/>
      <point x="206" y="306" type="line"/>
      <point x="206" y="650" type="line"/>
      <point x="20" y="650" type="line"/>
      <point x="20" y="624" type="line"/>
      <point x="79" y="624" type="line"/>
      <point x="79" y="78" type="line" smooth="yes"/>
      <point x="79" y="36"/>
      <point x="55" y="26"/>
      <point x="20" y="26" type="curve"/>
      <point x="20" y="0" type="line"/>
      <point x="255" y="0" type="line"/>
    </contour>
  </outline>
</glyph>
<glyph name="j" format="1">
  <advance width="295"/>
  <unicode hex="006A"/>
  <outline>
    <contour>
      <point x="207" y="488"/>
      <point x="241" y="520"/>
      <point x="241" y="561" type="curve" smooth="yes"/>
      <point x="241" y="602"/>
      <point x="207" y="636"/>
      <point x="166" y="636" type="curve" smooth="yes"/>
      <point x="125" y="636"/>
      <point x="92" y="602"/>
      <point x="92" y="561" type="curve" smooth="yes"/>
      <point x="92" y="520"/>
      <point x="125" y="488"/>
      <point x="166" y="488" type="curve" smooth="yes"/>
    </contour>
    <contour>
      <point x="45" y="430" type="line"/>
      <point x="45" y="404" type="line"/>
      <point x="108" y="404" type="line"/>
      <point x="108" y="78" type="line" smooth="yes"/>
      <point x="108" y="-1"/>
      <point x="114" y="-82"/>
      <point x="114" y="-120" type="curve" smooth="yes"/>
      <point x="114" y="-153"/>
      <point x="108" y="-168"/>
      <point x="92" y="-168" type="curve" smooth="yes"/>
      <point x="44" y="-168"/>
      <point x="77" y="-55"/>
      <point x="7" y="-55" type="curve" smooth="yes"/>
      <point x="-31" y="-55"/>
      <point x="-52" y="-80"/>
      <point x="-52" y="-109" type="curve" smooth="yes"/>
      <point x="-52" y="-148"/>
      <point x="-13" y="-195"/>
      <point x="74" y="-195" type="curve" smooth="yes"/>
      <point x="158" y="-195"/>
      <point x="235" y="-145"/>
      <point x="235" y="36" type="curve" smooth="yes"/>
      <point x="235" y="430" type="line"/>
    </contour>
  </outline>
</glyph>
<glyph name="m" format="1">
  <advance width="808"/>
  <unicode hex="006D"/>
  <outline>
    <contour>
      <point x="247" y="22"/>
      <point x="242" y="26"/>
      <point x="223" y="26" type="curve" smooth="yes"/>
      <point x="205" y="26" type="line"/>
      <point x="206" y="306" type="line"/>
      <point x="198" y="430" type="line"/>
      <point x="20" y="430" type="line"/>
      <point x="20" y="404" type="line"/>
      <point x="78" y="404" type="line"/>
      <point x="78" y="78" type="line" smooth="yes"/>
      <point x="78" y="36"/>
      <point x="55" y="26"/>
      <point x="20" y="26" type="curve"/>
      <point x="20" y="0" type="line"/>
      <point x="247" y="0" type="line"/>
    </contour>
    <contour>
      <point x="470" y="282" type="line" smooth="yes"/>
      <point x="470" y="387"/>
      <point x="411" y="445"/>
      <point x="343" y="445" type="curve" smooth="yes"/>
      <point x="283" y="445"/>
      <point x="231" y="417"/>
      <point x="200" y="351" type="curve"/>
      <point x="205" y="262" type="line"/>
      <point x="205" y="349"/>
      <point x="246" y="394"/>
      <point x="284" y="394" type="curve" smooth="yes"/>
      <point x="315" y="394"/>
      <point x="344" y="363"/>
      <point x="344" y="299" type="curve" smooth="yes"/>
      <point x="344" y="78" type="line" smooth="yes"/>
      <point x="344" y="38"/>
      <point x="336" y="26"/>
      <point x="300" y="26" type="curve"/>
      <point x="300" y="0" type="line"/>
      <point x="512" y="0" type="line"/>
      <point x="512" y="22"/>
      <point x="507" y="26"/>
      <point x="487" y="26" type="curve" smooth="yes"/>
      <point x="470" y="26" type="line"/>
    </contour>
    <contour>
      <point x="735" y="287" type="line" smooth="yes"/>
      <point x="735" y="389"/>
      <point x="674" y="445"/>
      <point x="605" y="445" type="curve" smooth="yes"/>
      <point x="541" y="445"/>
      <point x="487" y="413"/>
      <point x="454" y="340" type="curve"/>
      <point x="469" y="267" type="line"/>
      <point x="469" y="353"/>
      <point x="506" y="396"/>
      <point x="544" y="396" type="curve" smooth="yes"/>
      <point x="580" y="396"/>
      <point x="609" y="363"/>
      <point x="609" y="299" type="curve" smooth="yes"/>
      <point x="609" y="78" type="line" smooth="yes"/>
      <point x="609" y="38"/>
      <point x="601" y="26"/>
      <point x="565" y="26" type="curve"/>
      <point x="565" y="0" type="line"/>
      <point x="793" y="0" type="line"/>
      <point x="793" y="22"/>
      <point x="788" y="26"/>
      <point x="768" y="26" type="curve" smooth="yes"/>
      <point x="735" y="26" type="line"/>
    </contour>
  </outline>
</glyph>
<glyph name="o" format="1">
  <advance width="521"/>
  <unicode hex="006F"/>
  <outline>
    <contour>
      <point x="179" y="16"/>
      <point x="167" y="85"/>
      <point x="167" y="217" type="curve" smooth="yes"/>
      <point x="167" y="352"/>
      <point x="183" y="419"/>
      <point x="260" y="419" type="curve" smooth="yes"/>
      <point x="340" y="419"/>
      <point x="354" y="352"/>
      <point x="354" y="221" type="curve" smooth="yes"/>
      <point x="354" y="86"/>
      <point x="336" y="16"/>
      <point x="259" y="16" type="curve" smooth="yes"/>
    </contour>
    <contour>
      <point x="491" y="348"/>
      <point x="405" y="445"/>
      <point x="265" y="445" type="curve" smooth="yes"/>
      <point x="125" y="445"/>
      <point x="30" y="351"/>
      <point x="30" y="221" type="curve" smooth="yes"/>
      <point x="30" y="91"/>
      <point x="121" y="-10"/>
      <point x="256" y="-10" type="curve" smooth="yes"/>
      <point x="396" y="-10"/>
      <point x="491" y="93"/>
      <point x="491" y="223" type="curve" smooth="yes"/>
    </contour>
    <contour>
      <point x="271" y="500" type="move" name="top"/>
    </contour>
  </outline>
</glyph>
<glyph name="r" format="1">
  <advance width="422"/>
  <unicode hex="0072"/>
  <outline>
    <contour>
      <point x="392" y="307"/>
      <point x="417" y="340"/>
      <point x="417" y="372" type="curve" smooth="yes"/>
      <point x="417" y="405"/>
      <point x="392" y="438"/>
      <point x="337" y="438" type="curve" smooth="yes"/>
      <point x="281" y="438"/>
      <point x="212" y="390"/>
      <point x="197" y="322" type="curve"/>
      <point x="204" y="210" type="line"/>
      <point x="204" y="342"/>
      <point x="249" y="373"/>
      <point x="269" y="373" type="curve" smooth="yes"/>
      <point x="297" y="373"/>
      <point x="292" y="307"/>
      <point x="354" y="307" type="curve" smooth="yes"/>
    </contour>
    <contour>
      <point x="303" y="22"/>
      <point x="298" y="26"/>
      <point x="279" y="26" type="curve" smooth="yes"/>
      <point x="205" y="26" type="line"/>
      <point x="205" y="295" type="line"/>
      <point x="195" y="430" type="line"/>
      <point x="20" y="430" type="line"/>
      <point x="20" y="404" type="line"/>
      <point x="78" y="404" type="line"/>
      <point x="78" y="78" type="line" smooth="yes"/>
      <point x="78" y="36"/>
      <point x="58" y="26"/>
      <point x="20" y="26" type="curve"/>
      <point x="20" y="0" type="line"/>
      <point x="303" y="0" type="line"/>
    </contour>
    <contour>
      <point x="200" y="500" type="move" name="top"/>
    </contour>
    <contour>
      <point x="146" y="0" type="move" name="bottom"/>
    </contour>
  </outline>
</glyph>
<glyph name="s" format="1">
  <advance width="419"/>
  <unicode hex="0073"/>
  <outline>
    <contour>
      <point x="75" y="61"/>
      <point x="112" y="18"/>
      <point x="196" y="18" type="curve" smooth="yes"/>
      <point x="250" y="18"/>
      <point x="274" y="45"/>
      <point x="274" y="79" type="curve" smooth="yes"/>
      <point x="274" y="201"/>
      <point x="40" y="170"/>
      <point x="40" y="317" type="curve" smooth="yes"/>
      <point x="40" y="405"/>
      <point x="123" y="445"/>
      <point x="220" y="445" type="curve" smooth="yes"/>
      <point x="268" y="445"/>
      <point x="314" y="435"/>
      <point x="342" y="417" type="curve"/>
      <point x="342" y="442"/>
      <point x="348" y="451"/>
      <point x="368" y="451" type="curve"/>
      <point x="368" y="326" type="line"/>
      <point x="336" y="326" type="line"/>
      <point x="335" y="384"/>
      <point x="303" y="418"/>
      <point x="237" y="418" type="curve" smooth="yes"/>
      <point x="193" y="418"/>
      <point x="155" y="399"/>
      <point x="155" y="356" type="curve" smooth="yes"/>
      <point x="155" y="250"/>
      <point x="389" y="275"/>
      <point x="389" y="119" type="curve" smooth="yes"/>
      <point x="389" y="37"/>
      <point x="323" y="-10"/>
      <point x="216" y="-10" type="curve" smooth="yes"/>
      <point x="167" y="-10"/>
      <point x="111" y="-1"/>
      <point x="68" y="21" type="curve"/>
      <point x="68" y="-5"/>
      <point x="63" y="-10"/>
      <point x="41" y="-10" type="curve"/>
      <point x="41" y="142" type="line"/>
      <point x="75" y="142" type="line"/>
    </contour>
    <contour>
      <point x="210" y="500" type="move" name="top"/>
    </contour>
    <contour>
      <point x="210" y="0" type="move" name="bottom"/>
    </contour>
  </outline>
</glyph>
<glyph name="t" format="1">
  <advance width="366"/>
  <unicode hex="0074"/>
  <outline>
    <contour>
      <point x="20" y="399" type="line"/>
      <point x="348" y="399" type="line"/>
      <point x="348" y="425" type="line"/>
      <point x="20" y="425" type="line"/>
    </contour>
    <contour>
      <point x="89" y="16"/>
      <point x="163" y="-11"/>
      <point x="233" y="-11" type="curve" smooth="yes"/>
      <point x="310" y="-11"/>
      <point x="344" y="19"/>
      <point x="361" y="105" type="curve"/>
      <point x="334" y="109" type="line"/>
      <point x="316" y="34"/>
      <point x="292" y="19"/>
      <point x="263" y="19" type="curve" smooth="yes"/>
      <point x="233" y="19"/>
      <point x="216" y="44"/>
      <point x="216" y="96" type="curve" smooth="yes"/>
      <point x="216" y="541" type="line"/>
      <point x="89" y="520" type="line"/>
      <point x="89" y="118" type="line" smooth="yes"/>
    </contour>
    <contour>
      <point x="186" y="250" type="move" name="center"/>
    </contour>
    <contour>
      <point x="204" y="0" type="move" name="bottom"/>
    </contour>
    <contour>
      <point x="341" y="500" type="move" name="topright"/>
    </contour>
  </outline>
</glyph>
<glyph name="v" format="1">
  <advance width="475"/>
  <unicode hex="0076"/>
  <outline>
    <contour>
      <point x="233" y="405" type="line"/>
      <point x="233" y="430" type="line"/>
      <point x="2" y="430" type="line"/>
      <point x="2" y="405" type="line"/>
      <point x="41" y="405" type="line"/>
      <point x="167" y="68" type="line" smooth="yes"/>
      <point x="191" y="5"/>
      <point x="197" y="-5"/>
      <point x="234" y="-5" type="curve" smooth="yes"/>
      <point x="270" y="-5" type="line"/>
      <point x="415" y="376" type="line" smooth="yes"/>
      <point x="424" y="399"/>
      <point x="432" y="405"/>
      <point x="453" y="405" type="curve" smooth="yes"/>
      <point x="471" y="405"/>
      <point x="473" y="400"/>
      <point x="473" y="430" type="curve"/>
      <point x="311" y="430" type="line"/>
      <point x="311" y="405" type="line"/>
      <point x="393" y="405" type="line"/>
      <point x="265" y="77" type="line"/>
      <point x="285" y="77" type="line"/>
      <point x="165" y="405" type="line"/>
    </contour>
  </outline>
</glyph>
<glyph name="w" format="1">
  <advance width="710"/>
  <unicode hex="0077"/>
  <outline>
    <contour>
      <point x="236" y="404" type="line"/>
      <point x="236" y="430" type="line"/>
      <point x="5" y="430" type="line"/>
      <point x="5" y="404" type="line"/>
      <point x="47" y="404" type="line"/>
      <point x="163" y="68" type="line" smooth="yes"/>
      <point x="185" y="4"/>
      <point x="198" y="-5"/>
      <point x="230" y="-5" type="curve" smooth="yes"/>
      <point x="263" y="-5" type="line"/>
      <point x="365" y="313" type="line"/>
      <point x="343" y="342" type="line"/>
      <point x="267" y="94" type="line"/>
      <point x="279" y="94" type="line"/>
      <point x="176" y="404" type="line"/>
    </contour>
    <contour>
      <point x="499" y="404" type="line"/>
      <point x="499" y="430" type="line"/>
      <point x="305" y="430" type="line"/>
      <point x="430" y="68" type="line" smooth="yes"/>
      <point x="452" y="5"/>
      <point x="457" y="-5"/>
      <point x="494" y="-5" type="curve" smooth="yes"/>
      <point x="527" y="-5" type="line"/>
      <point x="652" y="375" type="line" smooth="yes"/>
      <point x="660" y="398"/>
      <point x="669" y="404"/>
      <point x="690" y="404" type="curve" smooth="yes"/>
      <point x="706" y="404"/>
      <point x="710" y="410"/>
      <point x="710" y="430" type="curve"/>
      <point x="568" y="430" type="line"/>
      <point x="568" y="404" type="line"/>
      <point x="630" y="404" type="line"/>
      <point x="531" y="94" type="line"/>
      <point x="543" y="94" type="line"/>
      <point x="439" y="404" type="line"/>
    </contour>
  </outline>
</glyph>
<glyph name="x" format="1">
  <advance width="482"/>
  <unicode hex="0078"/>
  <outline>
    <contour>
      <point x="181" y="404" type="line"/>
      <point x="240" y="404" type="line"/>
      <point x="240" y="430" type="line"/>
      <point x="9" y="430" type="line"/>
      <point x="9" y="404" type="line"/>
      <point x="57" y="404" type="line"/>
      <point x="328" y="0" type="line"/>
      <point x="454" y="0" type="line"/>
    </contour>
    <contour>
      <point x="255" y="199" type="line"/>
      <point x="390" y="375" type="line" smooth="yes"/>
      <point x="430" y="428"/>
      <point x="460" y="384"/>
      <point x="460" y="430" type="curve"/>
      <point x="311" y="430" type="line"/>
      <point x="311" y="404" type="line"/>
      <point x="377" y="404" type="line"/>
      <point x="240" y="226" type="line"/>
    </contour>
    <contour>
      <point x="252" y="26" type="line"/>
      <point x="252" y="0" type="line"/>
      <point x="482" y="0" type="line"/>
      <point x="482" y="22"/>
      <point x="475" y="26"/>
      <point x="457" y="26" type="curve" smooth="yes"/>
      <point x="443" y="26" type="line"/>
    </contour>
    <contour>
      <point x="31" y="4"/>
      <point x="5" y="46"/>
      <point x="5" y="0" type="curve"/>
      <point x="162" y="0" type="line"/>
      <point x="162" y="26" type="line"/>
      <point x="86" y="26" type="line"/>
      <point x="237" y="214" type="line"/>
      <point x="219" y="235" type="line"/>
      <point x="73" y="55" type="line" smooth="yes"/>
    </contour>
  </outline>
</glyph>
<glyph name="z" format="1">
  <advance width="419"/>
  <unicode hex="007A"/>
  <outline>
    <contour>
      <point x="146" y="27" type="line"/>
      <point x="402" y="409" type="line"/>
      <point x="402" y="430" type="line"/>
      <point x="42" y="430" type="line"/>
      <point x="62" y="403" type="line"/>
      <point x="279" y="403" type="line"/>
      <point x="12" y="22" type="line"/>
    </contour>
    <contour>
      <point x="146" y="27" type="line"/>
      <point x="12" y="22" type="line"/>
      <point x="12" y="0" type="line"/>
      <point x="397" y="0" type="line"/>
      <point x="360" y="26" type="line"/>
    </contour>
    <contour>
      <point x="35" y="281" type="line"/>
      <point x="60" y="281" type="line"/>
      <point x="94" y="355" type="line" smooth="yes"/>
      <point x="109" y="387"/>
      <point x="130" y="403"/>
      <point x="160" y="403" type="curve"/>
      <point x="42" y="430" type="line"/>
    </contour>
    <contour>
      <point x="399" y="170" type="line"/>
      <point x="373" y="170" type="line"/>
      <point x="352" y="91" type="line" smooth="yes"/>
      <point x="342" y="55"/>
      <point x="321" y="27"/>
      <point x="271" y="27" type="curve"/>
      <point x="397" y="0" type="line"/>
    </contour>
    <contour>
      <point x="210" y="500" type="move" name="top"/>
    </contour>
  </outline>
</glyph>
<glyph name="ordfeminine" format="1">
  <advance width="306"/>
  <unicode hex="00AA"/>
  <outline>
    <contour>
      <point x="286" y="242" type="line"/>
      <point x="286" y="279" type="line"/>
      <point x="14" y="279" type="line"/>
      <point x="14" y="242" type="line"/>
    </contour>
    <contour>
      <point x="269" y="323"/>
      <point x="296" y="344"/>
      <point x="296" y="389" type="curve"/>
      <point x="277" y="389" type="line"/>
      <point x="275" y="362"/>
      <point x="266" y="352"/>
      <point x="256" y="352" type="curve" smooth="yes"/>
      <point x="247" y="352"/>
      <point x="244" y="362"/>
      <point x="244" y="382" type="curve" smooth="yes"/>
      <point x="244" y="502" type="line" smooth="yes"/>
      <point x="244" y="573"/>
      <point x="196" y="600"/>
      <point x="133" y="600" type="curve" smooth="yes"/>
      <point x="58" y="600"/>
      <point x="21" y="576"/>
      <point x="21" y="545" type="curve" smooth="yes"/>
      <point x="21" y="525"/>
      <point x="37" y="512"/>
      <point x="57" y="512" type="curve" smooth="yes"/>
      <point x="123" y="512"/>
      <point x="84" y="581"/>
      <point x="129" y="581" type="curve" smooth="yes"/>
      <point x="154" y="581"/>
      <point x="164" y="563"/>
      <point x="164" y="519" type="curve" smooth="yes"/>
      <point x="164" y="406" type="line"/>
      <point x="154" y="371"/>
      <point x="135" y="360"/>
      <point x="121" y="360" type="curve" smooth="yes"/>
      <point x="104" y="360"/>
      <point x="93" y="376"/>
      <point x="93" y="404" type="curve" smooth="yes"/>
      <point x="93" y="445"/>
      <point x="114" y="461"/>
      <point x="175" y="461" type="curve"/>
      <point x="175" y="482" type="line"/>
      <point x="62" y="482"/>
      <point x="7" y="456"/>
      <point x="7" y="397" type="curve" smooth="yes"/>
      <point x="7" y="348"/>
      <point x="40" y="324"/>
      <point x="87" y="324" type="curve" smooth="yes"/>
      <point x="130" y="324"/>
      <point x="162" y="346"/>
      <point x="173" y="384" type="curve"/>
      <point x="167" y="384" type="line"/>
      <point x="171" y="344"/>
      <point x="203" y="323"/>
      <point x="235" y="323" type="curve" smooth="yes"/>
    </contour>
  </outline>
</glyph>
<glyph name="logicalnot" format="1">
  <advance width="480"/>
  <unicode hex="00AC"/>
  <outline>
    <contour>
      <point x="418" y="298" type="line"/>
      <point x="418" y="340" type="line"/>
      <point x="30" y="340" type="line"/>
      <point x="30" y="298" type="line"/>
    </contour>
    <contour>
      <point x="395" y="108" type="line"/>
      <point x="450" y="108" type="line"/>
      <point x="450" y="340" type="line"/>
      <point x="395" y="340" type="line"/>
    </contour>
  </outline>
</glyph>
<glyph name="acute" format="1">
  <advance width="500"/>
  <unicode hex="00B4"/>
  <outline>
    <contour>
      <point x="259" y="517"/>
      <point x="336" y="529"/>
      <point x="368" y="552" type="curve" smooth="yes"/>
      <point x="384" y="563"/>
      <point x="390" y="579"/>
      <point x="390" y="594" type="curve" smooth="yes"/>
      <point x="390" y="624"/>
      <point x="365" y="654"/>
      <point x="334" y="654" type="curve" smooth="yes"/>
      <point x="324" y="654"/>
      <point x="314" y="651"/>
      <point x="303" y="643" type="curve" smooth="yes"/>
      <point x="269" y="618"/>
      <point x="248" y="572"/>
      <point x="168" y="503" type="curve"/>
      <point x="183" y="481" type="line"/>
    </contour>
    <contour>
      <point x="269" y="500" type="move" name="_top"/>
    </contour>
  </outline>
</glyph>
<glyph name="cedilla" format="1">
  <advance width="500"/>
  <unicode hex="00B8"/>
  <outline>
    <contour>
      <point x="155" y="-85" type="line"/>
      <point x="169" y="-95" type="line"/>
      <point x="186" y="-83"/>
      <point x="202" y="-77"/>
      <point x="217" y="-77" type="curve" smooth="yes"/>
      <point x="240" y="-77"/>
      <point x="257" y="-95"/>
      <point x="257" y="-134" type="curve" smooth="yes"/>
      <point x="257" y="-178"/>
      <point x="237" y="-199"/>
      <point x="211" y="-199" type="curve" smooth="yes"/>
      <point x="191" y="-199"/>
      <point x="166" y="-186"/>
      <point x="146" y="-161" type="curve"/>
      <point x="130" y="-175" type="line"/>
      <point x="153" y="-207"/>
      <point x="194" y="-228"/>
      <point x="242" y="-228" type="curve" smooth="yes"/>
      <point x="327" y="-228"/>
      <point x="369" y="-181"/>
      <point x="369" y="-135" type="curve" smooth="yes"/>
      <point x="369" y="-91"/>
      <point x="331" y="-49"/>
      <point x="253" y="-49" type="curve" smooth="yes"/>
      <point x="234" y="-49"/>
      <point x="214" y="-53"/>
      <point x="197" y="-60" type="curve"/>
      <point x="227" y="8" type="line"/>
      <point x="201" y="8" type="line"/>
    </contour>
    <contour>
      <point x="239" y="0" type="move" name="_bottom"/>
    </contour>
  </outline>
</glyph>
<glyph name="germandbls" format="1">
  <advance width="609"/>
  <unicode hex="00DF"/>
  <outline>
    <contour>
      <point x="228" y="0" type="line"/>
      <point x="228" y="435" type="line"/>
      <point x="101" y="443" type="line"/>
      <point x="101" y="78" type="line" smooth="yes"/>
      <point x="101" y="36"/>
      <point x="67" y="26"/>
      <point x="25" y="26" type="curve"/>
      <point x="25" y="0" type="line"/>
    </contour>
    <contour>
      <point x="531" y="603"/>
      <point x="439" y="650"/>
      <point x="330" y="650" type="curve" smooth="yes"/>
      <point x="210" y="650"/>
      <point x="101" y="591"/>
      <point x="101" y="443" type="curve"/>
      <point x="228" y="435" type="line"/>
      <point x="228" y="590"/>
      <point x="267" y="627"/>
      <point x="322" y="627" type="curve" smooth="yes"/>
      <point x="377" y="627"/>
      <point x="401" y="581"/>
      <point x="401" y="512" type="curve" smooth="yes"/>
      <point x="401" y="405"/>
      <point x="280" y="440"/>
      <point x="280" y="327" type="curve" smooth="yes"/>
      <point x="280" y="205"/>
      <point x="479" y="197"/>
      <point x="479" y="75" type="curve" smooth="yes"/>
      <point x="479" y="35"/>
      <point x="455" y="18"/>
      <point x="416" y="18" type="curve" smooth="yes"/>
      <point x="343" y="18"/>
      <point x="381" y="138"/>
      <point x="314" y="138" type="curve" smooth="yes"/>
      <point x="280" y="138"/>
      <point x="257" y="117"/>
      <point x="257" y="89" type="curve" smooth="yes"/>
      <point x="257" y="26"/>
      <point x="336" y="-10"/>
      <point x="427" y="-10" type="curve" smooth="yes"/>
      <point x="513" y="-10"/>
      <point x="594" y="37"/>
      <point x="594" y="119" type="curve" smooth="yes"/>
      <point x="594" y="278"/>
      <point x="395" y="275"/>
      <point x="395" y="363" type="curve" smooth="yes"/>
      <point x="395" y="444"/>
      <point x="531" y="420"/>
      <point x="531" y="516" type="curve" smooth="yes"/>
    </contour>
    <contour>
      <point x="20" y="404" type="line"/>
      <point x="184" y="404" type="line"/>
      <point x="184" y="430" type="line"/>
      <point x="20" y="430" type="line"/>
    </contour>
  </outline>
</glyph>
<glyph name="divide" format="1">
  <advance width="448"/>
  <unicode hex="00F7"/>
  <outline>
    <contour>
      <point x="50" y="182" type="line"/>
      <point x="50" y="234" type="line"/>
      <point x="375" y="234" type="line"/>
      <point x="375" y="182" type="line"/>
    </contour>
    <contour>
      <point x="235" y="361"/>
      <point x="253" y="344"/>
      <point x="253" y="323" type="curve" smooth="yes"/>
      <point x="253" y="303"/>
      <point x="236" y="285"/>
      <point x="215" y="285" type="curve" smooth="yes"/>
      <point x="194" y="285"/>
      <point x="175" y="302"/>
      <point x="175" y="322" type="curve" smooth="yes"/>
      <point x="175" y="343"/>
      <point x="194" y="361"/>
      <point x="214" y="361" type="curve" smooth="yes"/>
    </contour>
    <contour>
      <point x="235" y="133"/>
      <point x="253" y="116"/>
      <point x="253" y="95" type="curve" smooth="yes"/>
      <point x="253" y="75"/>
      <point x="236" y="57"/>
      <point x="215" y="57" type="curve" smooth="yes"/>
      <point x="194" y="57"/>
      <point x="175" y="74"/>
      <point x="175" y="94" type="curve" smooth="yes"/>
      <point x="175" y="115"/>
      <point x="194" y="133"/>
      <point x="214" y="133" type="curve" smooth="yes"/>
    </contour>
  </outline>
</glyph>
<glyph name="dcroat" format="1">
  <advance width="571"/>
  <unicode hex="0111"/>
  <outline>
    <contour>
      <point x="186" y="509" type="line"/>
      <point x="556" y="509" type="line"/>
      <point x="556" y="542" type="line"/>
      <point x="186" y="542" type="line"/>
    </contour>
    <component base="d"/>
  </outline>
</glyph>
<glyph name="lslash" format="1">
  <advance width="319"/>
  <unicode hex="0142"/>
  <outline>
    <contour>
      <point x="4" y="216" type="line"/>
      <point x="338" y="401" type="line"/>
      <point x="321" y="432" type="line"/>
      <point x="-13" y="248" type="line"/>
    </contour>
    <component base="l"/>
  </outline>
</glyph>
<glyph name="oe" format="1">
  <advance width="794"/>
  <unicode hex="0153"/>
  <outline>
    <contour>
      <point x="485" y="368"/>
      <point x="510" y="420"/>
      <point x="566" y="420" type="curve" smooth="yes"/>
      <point x="624" y="420"/>
      <point x="637" y="374"/>
      <point x="637" y="310" type="curve" smooth="yes"/>
      <point x="637" y="258"/>
      <point x="619" y="244"/>
      <point x="549" y="247" type="curve" smooth="yes"/>
      <point x="473" y="250" type="line"/>
      <point x="471" y="223" type="line"/>
      <point x="577" y="220" type="line" smooth="yes"/>
      <point x="717" y="216"/>
      <point x="770" y="240"/>
      <point x="770" y="300" type="curve" smooth="yes"/>
      <point x="770" y="393"/>
      <point x="682" y="445"/>
      <point x="574" y="445" type="curve" smooth="yes"/>
      <point x="458" y="445"/>
      <point x="368" y="370"/>
      <point x="368" y="219" type="curve" smooth="yes"/>
      <point x="368" y="59"/>
      <point x="466" y="-10"/>
      <point x="575" y="-10" type="curve" smooth="yes"/>
      <point x="663" y="-10"/>
      <point x="733" y="27"/>
      <point x="760" y="106" type="curve"/>
      <point x="735" y="111" type="line"/>
      <point x="713" y="63"/>
      <point x="663" y="19"/>
      <point x="598" y="19" type="curve" smooth="yes"/>
      <point x="526" y="19"/>
      <point x="485" y="76"/>
      <point x="485" y="236" type="curve" smooth="yes"/>
    </contour>
    <contour>
      <point x="179" y="15"/>
      <point x="167" y="85"/>
      <point x="167" y="217" type="curve" smooth="yes"/>
      <point x="167" y="352"/>
      <point x="183" y="420"/>
      <point x="260" y="420" type="curve" smooth="yes"/>
      <point x="340" y="420"/>
      <point x="354" y="352"/>
      <point x="354" y="221" type="curve" smooth="yes"/>
      <point x="354" y="86"/>
      <point x="336" y="15"/>
      <point x="259" y="15" type="curve" smooth="yes"/>
    </contour>
    <contour>
      <point x="471" y="348"/>
      <point x="400" y="445"/>
      <point x="265" y="445" type="curve" smooth="yes"/>
      <point x="125" y="445"/>
      <point x="30" y="351"/>
      <point x="30" y="221" type="curve" smooth="yes"/>
      <point x="30" y="91"/>
      <point x="121" y="-10"/>
      <point x="256" y="-10" type="curve" smooth="yes"/>
      <point x="386" y="-10"/>
      <point x="471" y="93"/>
      <point x="471" y="223" type="curve" smooth="yes"/>
    </contour>
    <contour>
      <point x="425" y="500" type="move" name="top"/>
    </contour>
  </outline>
</glyph>
<glyph name="florin" format="1">
  <advance width="530"/>
  <unicode hex="0192"/>
  <outline>
    <contour>
      <point x="257" y="-195"/>
      <point x="297" y="26"/>
      <point x="308" y="261" type="curve" smooth="yes"/>
      <point x="318" y="469"/>
      <point x="322" y="584"/>
      <point x="380" y="584" type="curve" smooth="yes"/>
      <point x="440" y="584"/>
      <point x="386" y="461"/>
      <point x="473" y="461" type="curve" smooth="yes"/>
      <point x="513" y="461"/>
      <point x="535" y="487"/>
      <point x="535" y="516" type="curve" smooth="yes"/>
      <point x="535" y="567"/>
      <point x="484" y="610"/>
      <point x="401" y="610" type="curve" smooth="yes"/>
      <point x="239" y="610"/>
      <point x="175" y="482"/>
      <point x="167" y="228" type="curve" smooth="yes"/>
      <point x="161" y="34"/>
      <point x="163" y="-169"/>
      <point x="89" y="-169" type="curve" smooth="yes"/>
      <point x="34" y="-169"/>
      <point x="87" y="-44"/>
      <point x="-2" y="-44" type="curve" smooth="yes"/>
      <point x="-38" y="-44"/>
      <point x="-60" y="-69"/>
      <point x="-60" y="-102" type="curve" smooth="yes"/>
      <point x="-60" y="-154"/>
      <point x="-3" y="-195"/>
      <point x="69" y="-195" type="curve" smooth="yes"/>
    </contour>
    <contour>
      <point x="442" y="308" type="line"/>
      <point x="442" y="335" type="line"/>
      <point x="71" y="335" type="line"/>
      <point x="71" y="308" type="line"/>
    </contour>
  </outline>
</glyph>
<glyph name="top" format="1">
  <advance width="248"/>
  <unicode hex="02DA"/>
  <outline>
    <contour>
      <point x="70" y="702"/>
      <point x="92" y="711"/>
      <point x="117" y="711" type="curve" smooth="yes"/>
      <point x="158" y="711"/>
      <point x="199" y="678"/>
      <point x="199" y="629" type="curve" smooth="yes"/>
      <point x="199" y="588"/>
      <point x="164" y="547"/>
      <point x="115" y="547" type="curve" smooth="yes"/>
      <point x="74" y="547"/>
      <point x="31" y="581"/>
      <point x="31" y="630" type="curve" smooth="yes"/>
      <point x="31" y="651"/>
      <point x="38" y="669"/>
      <point x="53" y="684" type="curve" smooth="yes"/>
    </contour>
    <contour>
      <point x="63" y="652"/>
      <point x="59" y="641"/>
      <point x="59" y="629" type="curve" smooth="yes"/>
      <point x="59" y="592"/>
      <point x="90" y="573"/>
      <point x="115" y="573" type="curve" smooth="yes"/>
      <point x="154" y="573"/>
      <point x="172" y="603"/>
      <point x="172" y="627" type="curve" smooth="yes"/>
      <point x="172" y="664"/>
      <point x="140" y="683"/>
      <point x="115" y="683" type="curve" smooth="yes"/>
      <point x="96" y="683"/>
      <point x="81" y="676"/>
      <point x="70" y="661" type="curve" smooth="yes"/>
    </contour>
  </outline>
</glyph>
<glyph name="ogonek" format="1">
  <advance width="500"/>
  <unicode hex="02DB"/>
  <outline>
    <contour>
      <point x="296" y="-154"/>
      <point x="278" y="-162"/>
      <point x="262" y="-162" type="curve" smooth="yes"/>
      <point x="242" y="-162"/>
      <point x="227" y="-147"/>
      <point x="227" y="-112" type="curve" smooth="yes"/>
      <point x="227" y="-75"/>
      <point x="260" y="-26"/>
      <point x="321" y="0" type="curve"/>
      <point x="320" y="10" type="line"/>
      <point x="187" y="-6"/>
      <point x="120" y="-56"/>
      <point x="120" y="-118" type="curve" smooth="yes"/>
      <point x="120" y="-168"/>
      <point x="173" y="-192"/>
      <point x="228" y="-192" type="curve" smooth="yes"/>
      <point x="266" y="-192"/>
      <point x="304" y="-180"/>
      <point x="326" y="-156" type="curve"/>
      <point x="314" y="-139" type="line"/>
    </contour>
    <contour>
      <point x="321" y="9" type="move" name="_ogonek"/>
    </contour>
  </outline>
</glyph>
<glyph name="si_I" format="1">
  <advance width="593"/>
  <unicode hex="0D89"/>
  <outline>
    <contour>
      <point x="262" y="13"/>
      <point x="261" y="13"/>
      <point x="249" y="12" type="curve"/>
      <point x="249" y="-16" type="line"/>
      <point x="259" y="-15"/>
      <point x="259" y="-15"/>
      <point x="267" y="-15" type="curve" smooth="yes"/>
      <point x="334" y="-15"/>
      <point x="369" y="-41"/>
      <point x="369" y="-83" type="curve" smooth="yes"/>
      <point x="369" y="-121"/>
      <point x="339" y="-137"/>
      <point x="300" y="-137" type="curve" smooth="yes"/>
      <point x="247" y="-137"/>
      <point x="233" y="-114"/>
      <point x="233" y="-94" type="curve" smooth="yes"/>
      <point x="233" y="-82"/>
      <point x="237" y="-71"/>
      <point x="237" y="-65" type="curve" smooth="yes"/>
      <point x="237" y="-48"/>
      <point x="222" y="-38"/>
      <point x="207" y="-38" type="curve" smooth="yes"/>
      <point x="190" y="-38"/>
      <point x="173" y="-50"/>
      <point x="173" y="-76" type="curve" smooth="yes"/>
      <point x="173" y="-139"/>
      <point x="236" y="-160"/>
      <point x="298" y="-160" type="curve" smooth="yes"/>
      <point x="364" y="-160"/>
      <point x="439" y="-134"/>
      <point x="439" y="-75" type="curve" smooth="yes"/>
      <point x="439" y="-36"/>
      <point x="417" y="-12"/>
      <point x="384" y="-6" type="curve"/>
      <point x="473" y="10"/>
      <point x="544" y="92"/>
      <point x="544" y="198" type="curve" smooth="yes"/>
      <point x="544" y="353"/>
      <point x="444" y="432"/>
      <point x="284" y="432" type="curve" smooth="yes"/>
      <point x="141" y="432"/>
      <point x="33" y="357"/>
      <point x="33" y="221" type="curve" smooth="yes"/>
      <point x="33" y="117"/>
      <point x="113" y="54"/>
      <point x="220" y="54" type="curve" smooth="yes"/>
      <point x="310" y="54"/>
      <point x="377" y="90"/>
      <point x="377" y="170" type="curve" smooth="yes"/>
      <point x="377" y="222"/>
      <point x="344" y="260"/>
      <point x="286" y="260" type="curve" smooth="yes"/>
      <point x="240" y="260"/>
      <point x="204" y="225"/>
      <point x="204" y="179" type="curve" smooth="yes"/>
      <point x="204" y="139"/>
      <point x="239" y="105"/>
      <point x="283" y="105" type="curve" smooth="yes"/>
      <point x="297" y="105"/>
      <point x="318" y="108"/>
      <point x="333" y="120" type="curve"/>
      <point x="317" y="96"/>
      <point x="276" y="81"/>
      <point x="223" y="81" type="curve" smooth="yes"/>
      <point x="141" y="81"/>
      <point x="94" y="132"/>
      <point x="94" y="187" type="curve" smooth="yes"/>
      <point x="94" y="270"/>
      <point x="168" y="322"/>
      <point x="285" y="322" type="curve" smooth="yes"/>
      <point x="412" y="322"/>
      <point x="484" y="245"/>
      <point x="484" y="159" type="curve" smooth="yes"/>
      <point x="484" y="72"/>
      <point x="418" y="11"/>
      <point x="324" y="11" type="curve" smooth="yes"/>
      <point x="307" y="11"/>
      <point x="290" y="13"/>
      <point x="273" y="13" type="curve" smooth="yes"/>
    </contour>
    <contour>
      <point x="315" y="231"/>
      <point x="338" y="210"/>
      <point x="338" y="182" type="curve" smooth="yes"/>
      <point x="338" y="155"/>
      <point x="316" y="133"/>
      <point x="288" y="133" type="curve" smooth="yes"/>
      <point x="261" y="133"/>
      <point x="238" y="154"/>
      <point x="238" y="182" type="curve" smooth="yes"/>
      <point x="238" y="209"/>
      <point x="260" y="231"/>
      <point x="288" y="231" type="curve" smooth="yes"/>
    </contour>
  </outline>
</glyph>
<glyph name="si_Tta" format="1">
  <advance width="603"/>
  <unicode hex="0DA7"/>
  <outline>
    <contour>
      <point x="93" y="168"/>
      <point x="188" y="132"/>
      <point x="278" y="132" type="curve" smooth="yes"/>
      <point x="401" y="132"/>
      <point x="495" y="192"/>
      <point x="495" y="317" type="curve" smooth="yes"/>
      <point x="495" y="443"/>
      <point x="418" y="553"/>
      <point x="275" y="553" type="curve" smooth="yes"/>
      <point x="195" y="553"/>
      <point x="133" y="525"/>
      <point x="90" y="470" type="curve"/>
      <point x="57" y="470" type="line"/>
      <point x="104" y="539"/>
      <point x="177" y="577"/>
      <point x="273" y="577" type="curve" smooth="yes"/>
      <point x="446" y="577"/>
      <point x="557" y="433"/>
      <point x="557" y="271" type="curve" smooth="yes"/>
      <point x="557" y="115"/>
      <point x="447" y="-1"/>
      <point x="285" y="-1" type="curve" smooth="yes"/>
      <point x="133" y="-1"/>
      <point x="32" y="81"/>
      <point x="32" y="208" type="curve" smooth="yes"/>
      <point x="32" y="323"/>
      <point x="126" y="391"/>
      <point x="232" y="391" type="curve" smooth="yes"/>
      <point x="259" y="391"/>
      <point x="292" y="386"/>
      <point x="321" y="375" type="curve"/>
      <point x="321" y="346" type="line"/>
      <point x="294" y="359"/>
      <point x="266" y="365"/>
      <point x="234" y="365" type="curve" smooth="yes"/>
      <point x="148" y="365"/>
      <point x="93" y="322"/>
      <point x="93" y="256" type="curve" smooth="yes"/>
    </contour>
  </outline>
</glyph>
<glyph name="si_Na" format="1">
  <advance width="806"/>
  <unicode hex="0DB1"/>
  <outline>
    <contour>
      <point x="300" y="329"/>
      <point x="352" y="342"/>
      <point x="405" y="342" type="curve" smooth="yes"/>
      <point x="542" y="342"/>
      <point x="668" y="264"/>
      <point x="668" y="126" type="curve" smooth="yes"/>
      <point x="668" y="58"/>
      <point x="646" y="27"/>
      <point x="604" y="27" type="curve" smooth="yes"/>
      <point x="588" y="27"/>
      <point x="576" y="31"/>
      <point x="555" y="43" type="curve"/>
      <point x="542" y="21" type="line"/>
      <point x="564" y="6"/>
      <point x="588" y="-1"/>
      <point x="613" y="-1" type="curve" smooth="yes"/>
      <point x="687" y="-1"/>
      <point x="760" y="63"/>
      <point x="760" y="183" type="curve" smooth="yes"/>
      <point x="760" y="335"/>
      <point x="646" y="433"/>
      <point x="506" y="433" type="curve" smooth="yes"/>
      <point x="401" y="433"/>
      <point x="303" y="375"/>
      <point x="253" y="317" type="curve"/>
      <point x="253" y="318"/>
      <point x="253" y="319"/>
      <point x="253" y="320" type="curve" smooth="yes"/>
      <point x="253" y="387"/>
      <point x="219" y="431"/>
      <point x="154" y="431" type="curve" smooth="yes"/>
      <point x="89" y="431"/>
      <point x="55" y="384"/>
      <point x="55" y="339" type="curve" smooth="yes"/>
      <point x="55" y="304"/>
      <point x="81" y="295"/>
      <point x="97" y="295" type="curve" smooth="yes"/>
      <point x="125" y="295"/>
      <point x="139" y="323"/>
      <point x="141" y="345" type="curve" smooth="yes"/>
      <point x="143" y="370"/>
      <point x="159" y="383"/>
      <point x="181" y="383" type="curve" smooth="yes"/>
      <point x="207" y="383"/>
      <point x="223" y="356"/>
      <point x="223" y="322" type="curve" smooth="yes"/>
      <point x="223" y="309"/>
      <point x="221" y="296"/>
      <point x="214" y="285" type="curve"/>
      <point x="132" y="208"/>
      <point x="133" y="148"/>
      <point x="67" y="148" type="curve" smooth="yes"/>
      <point x="51" y="148"/>
      <point x="34" y="154"/>
      <point x="24" y="160" type="curve"/>
      <point x="28" y="52"/>
      <point x="142" y="-1"/>
      <point x="276" y="-1" type="curve" smooth="yes"/>
      <point x="398" y="-1"/>
      <point x="498" y="53"/>
      <point x="498" y="169" type="curve" smooth="yes"/>
      <point x="498" y="249"/>
      <point x="429" y="308"/>
      <point x="345" y="308" type="curve" smooth="yes"/>
      <point x="317" y="308"/>
      <point x="292" y="304"/>
      <point x="266" y="295" type="curve"/>
    </contour>
    <contour>
      <point x="394" y="282"/>
      <point x="431" y="250"/>
      <point x="431" y="207" type="curve" smooth="yes"/>
      <point x="431" y="151"/>
      <point x="374" y="129"/>
      <point x="264" y="129" type="curve" smooth="yes"/>
      <point x="206" y="129"/>
      <point x="159" y="132"/>
      <point x="128" y="143" type="curve"/>
      <point x="192" y="186"/>
      <point x="180" y="282"/>
      <point x="334" y="282" type="curve" smooth="yes"/>
    </contour>
  </outline>
</glyph>
<glyph name="si_Pa" format="1">
  <advance width="616"/>
  <unicode hex="0DB4"/>
  <outline>
    <contour>
      <point x="439" y="433" type="line"/>
    </contour>
    <contour>
      <point x="439" y="433" type="line"/>
    </contour>
    <contour>
      <point x="366" y="433"/>
      <point x="321" y="397"/>
      <point x="321" y="328" type="curve" smooth="yes"/>
      <point x="321" y="318"/>
      <point x="322" y="308"/>
      <point x="324" y="297" type="curve"/>
      <point x="347" y="301"/>
      <point x="371" y="304"/>
      <point x="394" y="304" type="curve" smooth="yes"/>
      <point x="472" y="304"/>
      <point x="519" y="278"/>
      <point x="519" y="230" type="curve" smooth="yes"/>
      <point x="519" y="157"/>
      <point x="404" y="132"/>
      <point x="307" y="132" type="curve" smooth="yes"/>
      <point x="206" y="132"/>
      <point x="89" y="153"/>
      <point x="89" y="226" type="curve" smooth="yes"/>
      <point x="89" y="280"/>
      <point x="140" y="302"/>
      <point x="217" y="302" type="curve" smooth="yes"/>
      <point x="218" y="302"/>
      <point x="253" y="300"/>
      <point x="271" y="298" type="curve"/>
      <point x="274" y="311"/>
      <point x="275" y="323"/>
      <point x="275" y="334" type="curve" smooth="yes"/>
      <point x="275" y="401"/>
      <point x="231" y="434"/>
      <point x="158" y="434" type="curve" smooth="yes"/>
      <point x="103" y="434"/>
      <point x="57" y="409"/>
      <point x="57" y="368" type="curve" smooth="yes"/>
      <point x="57" y="338"/>
      <point x="82" y="328"/>
      <point x="96" y="328" type="curve" smooth="yes"/>
      <point x="122" y="328"/>
      <point x="136" y="342"/>
      <point x="142" y="360" type="curve" smooth="yes"/>
      <point x="147" y="379"/>
      <point x="160" y="393"/>
      <point x="192" y="393" type="curve" smooth="yes"/>
      <point x="220" y="393"/>
      <point x="245" y="376"/>
      <point x="245" y="336" type="curve" smooth="yes"/>
      <point x="245" y="332"/>
      <point x="244" y="329"/>
      <point x="244" y="325" type="curve"/>
      <point x="231" y="326"/>
      <point x="220" y="327"/>
      <point x="207" y="327" type="curve" smooth="yes"/>
      <point x="99" y="327"/>
      <point x="31" y="275"/>
      <point x="31" y="184" type="curve" smooth="yes"/>
      <point x="31" y="46"/>
      <point x="159" y="0"/>
      <point x="307" y="0" type="curve" smooth="yes"/>
      <point x="448" y="0"/>
      <point x="574" y="56"/>
      <point x="574" y="186" type="curve" smooth="yes"/>
      <point x="574" y="241"/>
      <point x="554" y="279"/>
      <point x="514" y="303" type="curve"/>
      <point x="533" y="317"/>
      <point x="541" y="334"/>
      <point x="541" y="354" type="curve" smooth="yes"/>
      <point x="541" y="393"/>
      <point x="505" y="433"/>
      <point x="439" y="433" type="curve" smooth="yes"/>
    </contour>
    <contour>
      <point x="464" y="324"/>
      <point x="436" y="328"/>
      <point x="403" y="328" type="curve" smooth="yes"/>
      <point x="387" y="328"/>
      <point x="371" y="327"/>
      <point x="354" y="325" type="curve"/>
      <point x="353" y="329"/>
      <point x="353" y="332"/>
      <point x="353" y="336" type="curve" smooth="yes"/>
      <point x="353" y="381"/>
      <point x="389" y="405"/>
      <point x="432" y="405" type="curve" smooth="yes"/>
      <point x="479" y="405"/>
      <point x="505" y="380"/>
      <point x="505" y="351" type="curve" smooth="yes"/>
      <point x="505" y="338"/>
      <point x="500" y="326"/>
      <point x="489" y="315" type="curve"/>
    </contour>
  </outline>
</glyph>
<glyph name="si_Ha" format="1">
  <advance width="653"/>
  <unicode hex="0DC4"/>
  <outline>
    <contour>
      <point x="239" y="192" type="line"/>
      <point x="248" y="317"/>
      <point x="329" y="432"/>
      <point x="430" y="432" type="curve" smooth="yes"/>
      <point x="542" y="432"/>
      <point x="605" y="329"/>
      <point x="605" y="211" type="curve" smooth="yes"/>
      <point x="605" y="92"/>
      <point x="516" y="-1"/>
      <point x="393" y="-1" type="curve" smooth="yes"/>
      <point x="380" y="-1"/>
      <point x="366" y="-0"/>
      <point x="352" y="2" type="curve"/>
      <point x="352" y="29" type="line"/>
      <point x="364" y="27"/>
      <point x="376" y="26"/>
      <point x="388" y="26" type="curve" smooth="yes"/>
      <point x="487" y="26"/>
      <point x="541" y="93"/>
      <point x="541" y="193" type="curve" smooth="yes"/>
      <point x="541" y="250"/>
      <point x="503" y="322"/>
      <point x="412" y="322" type="curve" smooth="yes"/>
      <point x="332" y="322"/>
      <point x="292" y="288"/>
      <point x="271" y="229" type="curve"/>
      <point x="281" y="235"/>
      <point x="291" y="237"/>
      <point x="300" y="237" type="curve" smooth="yes"/>
      <point x="338" y="237"/>
      <point x="366" y="199"/>
      <point x="366" y="145" type="curve" smooth="yes"/>
      <point x="366" y="53"/>
      <point x="296" y="-1"/>
      <point x="201" y="-1" type="curve" smooth="yes"/>
      <point x="103" y="-1"/>
      <point x="33" y="61"/>
      <point x="33" y="155" type="curve" smooth="yes"/>
      <point x="33" y="246"/>
      <point x="100" y="303"/>
      <point x="194" y="303" type="curve" smooth="yes"/>
      <point x="198" y="303"/>
      <point x="202" y="303"/>
      <point x="206" y="303" type="curve"/>
      <point x="206" y="345"/>
      <point x="181" y="382"/>
      <point x="149" y="382" type="curve" smooth="yes"/>
      <point x="127" y="382"/>
      <point x="117" y="374"/>
      <point x="108" y="352" type="curve" smooth="yes"/>
      <point x="100" y="332"/>
      <point x="84" y="325"/>
      <point x="70" y="325" type="curve" smooth="yes"/>
      <point x="50" y="325"/>
      <point x="33" y="336"/>
      <point x="33" y="364" type="curve" smooth="yes"/>
      <point x="33" y="394"/>
      <point x="62" y="432"/>
      <point x="118" y="432" type="curve" smooth="yes"/>
      <point x="197" y="432"/>
      <point x="238" y="360"/>
      <point x="239" y="278" type="curve"/>
      <point x="227" y="279"/>
      <point x="216" y="280"/>
      <point x="205" y="280" type="curve" smooth="yes"/>
      <point x="125" y="280"/>
      <point x="94" y="250"/>
      <point x="94" y="207" type="curve" smooth="yes"/>
      <point x="94" y="152"/>
      <point x="156" y="132"/>
      <point x="208" y="132" type="curve" smooth="yes"/>
      <point x="246" y="132"/>
      <point x="318" y="140"/>
      <point x="318" y="188" type="curve" smooth="yes"/>
      <point x="318" y="202"/>
      <point x="309" y="212"/>
      <point x="295" y="212" type="curve" smooth="yes"/>
      <point x="282" y="212"/>
      <point x="268" y="203"/>
      <point x="261" y="182" type="curve"/>
    </contour>
  </outline>
</glyph>
<glyph name="short_dash2" format="1">
  <advance width="297"/>
  <unicode hex="2010"/>
  <outline>
    <contour>
      <point x="43" y="226" type="line"/>
      <point x="245" y="226" type="line"/>
      <point x="245" y="187" type="line"/>
      <point x="43" y="187" type="line"/>
    </contour>
  </outline>
</glyph>
<glyph name="quoteleft" format="1">
  <advance width="187"/>
  <unicode hex="2018"/>
  <outline>
    <contour>
      <point x="132" y="414"/>
      <point x="162" y="446"/>
      <point x="162" y="485" type="curve" smooth="yes"/>
      <point x="162" y="523"/>
      <point x="134" y="548"/>
      <point x="105" y="554" type="curve" smooth="yes"/>
      <point x="86" y="558"/>
      <point x="79" y="565"/>
      <point x="79" y="579" type="curve" smooth="yes"/>
      <point x="79" y="596"/>
      <point x="94" y="626"/>
      <point x="118" y="651" type="curve"/>
      <point x="97" y="667" type="line"/>
      <point x="53" y="620"/>
      <point x="20" y="553"/>
      <point x="20" y="497" type="curve" smooth="yes"/>
      <point x="20" y="450"/>
      <point x="45" y="414"/>
      <point x="94" y="414" type="curve" smooth="yes"/>
    </contour>
  </outline>
</glyph>
<glyph name="dblquote_left" format="1">
  <advance width="377"/>
  <unicode hex="201C"/>
  <outline>
    <contour>
      <point x="170" y="583"/>
      <point x="163" y="574"/>
      <point x="150" y="568" type="curve"/>
      <point x="133" y="559"/>
      <point x="123" y="553"/>
      <point x="120" y="549" type="curve" smooth="yes"/>
      <point x="117" y="545"/>
      <point x="115" y="540"/>
      <point x="115" y="534" type="curve" smooth="yes"/>
      <point x="115" y="513"/>
      <point x="128" y="490"/>
      <point x="155" y="463" type="curve"/>
      <point x="119" y="463" type="line"/>
      <point x="91" y="486"/>
      <point x="73" y="514"/>
      <point x="64" y="546" type="curve" smooth="yes"/>
      <point x="61" y="557"/>
      <point x="60" y="567"/>
      <point x="60" y="578" type="curve" smooth="yes"/>
      <point x="60" y="620"/>
      <point x="76" y="645"/>
      <point x="107" y="652" type="curve" smooth="yes"/>
      <point x="112" y="653"/>
      <point x="118" y="654"/>
      <point x="123" y="654" type="curve" smooth="yes"/>
      <point x="155" y="654"/>
      <point x="175" y="628"/>
      <point x="171" y="595" type="curve"/>
    </contour>
    <contour>
      <point x="314" y="583"/>
      <point x="307" y="574"/>
      <point x="294" y="568" type="curve"/>
      <point x="277" y="559"/>
      <point x="267" y="553"/>
      <point x="264" y="549" type="curve" smooth="yes"/>
      <point x="261" y="545"/>
      <point x="259" y="540"/>
      <point x="259" y="533" type="curve" smooth="yes"/>
      <point x="259" y="512"/>
      <point x="272" y="488"/>
      <point x="299" y="463" type="curve"/>
      <point x="263" y="463" type="line"/>
      <point x="235" y="486"/>
      <point x="217" y="514"/>
      <point x="208" y="546" type="curve" smooth="yes"/>
      <point x="205" y="557"/>
      <point x="204" y="567"/>
      <point x="204" y="578" type="curve" smooth="yes"/>
      <point x="204" y="620"/>
      <point x="220" y="645"/>
      <point x="251" y="652" type="curve" smooth="yes"/>
      <point x="256" y="653"/>
      <point x="262" y="654"/>
      <point x="267" y="654" type="curve" smooth="yes"/>
      <point x="299" y="654"/>
      <point x="319" y="628"/>
      <point x="315" y="595" type="curve"/>
    </contour>
  </outline>
</glyph>
<glyph name="summation" format="1">
  <advance width="484"/>
  <unicode hex="2211"/>
  <outline>
    <contour>
      <point x="477" y="-130" type="line"/>
      <point x="458" y="-29" type="line"/>
      <point x="77" y="-29" type="line"/>
      <point x="5" y="-80" type="line"/>
      <point x="5" y="-130" type="line"/>
    </contour>
    <contour>
      <point x="477" y="89" type="line"/>
      <point x="453" y="89" type="line"/>
      <point x="426" y="20" type="line" smooth="yes"/>
      <point x="409" y="-23"/>
      <point x="380" y="-29"/>
      <point x="332" y="-29" type="curve"/>
      <point x="477" y="-130" type="line"/>
    </contour>
    <contour>
      <point x="467" y="427" type="line"/>
      <point x="479" y="600" type="line"/>
      <point x="44" y="600" type="line"/>
      <point x="44" y="572" type="line"/>
      <point x="308" y="572" type="line" smooth="yes"/>
      <point x="380" y="572"/>
      <point x="406" y="553"/>
      <point x="427" y="481" type="curve" smooth="yes"/>
      <point x="443" y="427" type="line"/>
    </contour>
    <contour>
      <point x="51" y="-80" type="line"/>
      <point x="352" y="274" type="line"/>
      <point x="315" y="284" type="line"/>
      <point x="5" y="-80" type="line"/>
    </contour>
    <contour>
      <point x="350" y="274" type="line"/>
      <point x="143" y="600" type="line"/>
      <point x="5" y="600" type="line"/>
      <point x="5" y="579" type="line"/>
      <point x="262" y="188" type="line"/>
    </contour>
  </outline>
</glyph>
<glyph name="uni25CC" format="1">
  <advance width="479"/>
  <unicode hex="25CC"/>
  <outline>
    <contour>
      <point x="203" y="23"/>
      <point x="194" y="12"/>
      <point x="177" y="12" type="curve" smooth="yes"/>
      <point x="159" y="12"/>
      <point x="150" y="23"/>
      <point x="150" y="44" type="curve" smooth="yes"/>
      <point x="150" y="66"/>
      <point x="159" y="77"/>
      <point x="177" y="77" type="curve" smooth="yes"/>
      <point x="194" y="77"/>
      <point x="203" y="66"/>
      <point x="203" y="45" type="curve" smooth="yes"/>
    </contour>
    <contour>
      <point x="327" y="23"/>
      <point x="318" y="12"/>
      <point x="300" y="12" type="curve" smooth="yes"/>
      <point x="282" y="12"/>
      <point x="273" y="23"/>
      <point x="273" y="44" type="curve" smooth="yes"/>
      <point x="273" y="66"/>
      <point x="282" y="77"/>
      <point x="300" y="77" type="curve" smooth="yes"/>
      <point x="318" y="77"/>
      <point x="327" y="66"/>
      <point x="327" y="44" type="curve" smooth="yes"/>
    </contour>
    <contour>
      <point x="265" y="11"/>
      <point x="256" y="0"/>
      <point x="238" y="0" type="curve" smooth="yes"/>
      <point x="220" y="0"/>
      <point x="211" y="11"/>
      <point x="211" y="33" type="curve" smooth="yes"/>
      <point x="211" y="54"/>
      <point x="220" y="64"/>
      <point x="238" y="64" type="curve" smooth="yes"/>
      <point x="256" y="64"/>
      <point x="265" y="54"/>
      <point x="265" y="33" type="curve" smooth="yes"/>
    </contour>
    <contour>
      <point x="265" y="335"/>
      <point x="256" y="324"/>
      <point x="238" y="324" type="curve" smooth="yes"/>
      <point x="220" y="324"/>
      <point x="211" y="335"/>
      <point x="211" y="357" type="curve" smooth="yes"/>
      <point x="211" y="378"/>
      <point x="220" y="388"/>
      <point x="238" y="388" type="curve" smooth="yes"/>
      <point x="256" y="388"/>
      <point x="265" y="378"/>
      <point x="265" y="357" type="curve" smooth="yes"/>
    </contour>
    <contour>
      <point x="203" y="322"/>
      <point x="194" y="312"/>
      <point x="177" y="312" type="curve" smooth="yes"/>
      <point x="159" y="312"/>
      <point x="150" y="322"/>
      <point x="150" y="343" type="curve" smooth="yes"/>
      <point x="150" y="365"/>
      <point x="159" y="376"/>
      <point x="177" y="376" type="curve" smooth="yes"/>
      <point x="194" y="376"/>
      <point x="203" y="365"/>
      <point x="203" y="343" type="curve" smooth="yes"/>
    </contour>
    <contour>
      <point x="327" y="322"/>
      <point x="318" y="312"/>
      <point x="300" y="312" type="curve" smooth="yes"/>
      <point x="282" y="312"/>
      <point x="273" y="322"/>
      <point x="273" y="343" type="curve" smooth="yes"/>
      <point x="273" y="365"/>
      <point x="282" y="376"/>
      <point x="300" y="376" type="curve" smooth="yes"/>
      <point x="318" y="376"/>
      <point x="327" y="365"/>
      <point x="327" y="343" type="curve" smooth="yes"/>
    </contour>
    <contour>
      <point x="152" y="288"/>
      <point x="143" y="277"/>
      <point x="124" y="277" type="curve" smooth="yes"/>
      <point x="117" y="277"/>
      <point x="112" y="278"/>
      <point x="109" y="280" type="curve"/>
      <point x="114" y="274"/>
      <point x="116" y="266"/>
      <point x="116" y="256" type="curve" smooth="yes"/>
      <point x="116" y="234"/>
      <point x="107" y="223"/>
      <point x="90" y="223" type="curve"/>
      <point x="99" y="219"/>
      <point x="104" y="210"/>
      <point x="104" y="195" type="curve" smooth="yes"/>
      <point x="104" y="179"/>
      <point x="99" y="169"/>
      <point x="90" y="165" type="curve"/>
      <point x="107" y="164"/>
      <point x="116" y="153"/>
      <point x="116" y="132" type="curve" smooth="yes"/>
      <point x="116" y="122"/>
      <point x="114" y="114"/>
      <point x="110" y="108" type="curve"/>
      <point x="114" y="110"/>
      <point x="119" y="111"/>
      <point x="124" y="111" type="curve" smooth="yes"/>
      <point x="143" y="111"/>
      <point x="152" y="100"/>
      <point x="152" y="79" type="curve" smooth="yes"/>
      <point x="152" y="58"/>
      <point x="143" y="47"/>
      <point x="125" y="47" type="curve" smooth="yes"/>
      <point x="106" y="47"/>
      <point x="97" y="58"/>
      <point x="97" y="79" type="curve" smooth="yes"/>
      <point x="97" y="89"/>
      <point x="99" y="97"/>
      <point x="103" y="102" type="curve"/>
      <point x="100" y="101"/>
      <point x="96" y="100"/>
      <point x="89" y="100" type="curve" smooth="yes"/>
      <point x="71" y="100"/>
      <point x="62" y="111"/>
      <point x="62" y="132" type="curve" smooth="yes"/>
      <point x="62" y="147"/>
      <point x="66" y="157"/>
      <point x="75" y="162" type="curve"/>
      <point x="58" y="162"/>
      <point x="49" y="173"/>
      <point x="49" y="195" type="curve" smooth="yes"/>
      <point x="49" y="215"/>
      <point x="58" y="225"/>
      <point x="75" y="226" type="curve"/>
      <point x="66" y="229"/>
      <point x="62" y="239"/>
      <point x="62" y="256" type="curve" smooth="yes"/>
      <point x="62" y="277"/>
      <point x="71" y="288"/>
      <point x="89" y="288" type="curve" smooth="yes"/>
      <point x="96" y="288"/>
      <point x="101" y="287"/>
      <point x="104" y="284" type="curve"/>
      <point x="99" y="289"/>
      <point x="97" y="297"/>
      <point x="97" y="308" type="curve" smooth="yes"/>
      <point x="97" y="329"/>
      <point x="106" y="340"/>
      <point x="124" y="340" type="curve" smooth="yes"/>
      <point x="143" y="340"/>
      <point x="152" y="330"/>
      <point x="152" y="309" type="curve" smooth="yes"/>
    </contour>
    <contour>
      <point x="416" y="240"/>
      <point x="412" y="230"/>
      <point x="403" y="226" type="curve"/>
      <point x="420" y="225"/>
      <point x="428" y="214"/>
      <point x="428" y="195" type="curve" smooth="yes"/>
      <point x="428" y="174"/>
      <point x="420" y="163"/>
      <point x="403" y="162" type="curve"/>
      <point x="412" y="157"/>
      <point x="416" y="147"/>
      <point x="416" y="132" type="curve" smooth="yes"/>
      <point x="416" y="111"/>
      <point x="407" y="100"/>
      <point x="389" y="100" type="curve" smooth="yes"/>
      <point x="383" y="100"/>
      <point x="378" y="101"/>
      <point x="374" y="103" type="curve"/>
      <point x="378" y="97"/>
      <point x="380" y="89"/>
      <point x="380" y="79" type="curve" smooth="yes"/>
      <point x="380" y="58"/>
      <point x="371" y="47"/>
      <point x="353" y="47" type="curve" smooth="yes"/>
      <point x="335" y="47"/>
      <point x="326" y="58"/>
      <point x="326" y="79" type="curve" smooth="yes"/>
      <point x="326" y="100"/>
      <point x="335" y="111"/>
      <point x="353" y="111" type="curve" smooth="yes"/>
      <point x="358" y="111"/>
      <point x="363" y="110"/>
      <point x="366" y="108" type="curve"/>
      <point x="362" y="113"/>
      <point x="361" y="121"/>
      <point x="361" y="132" type="curve" smooth="yes"/>
      <point x="361" y="153"/>
      <point x="370" y="164"/>
      <point x="387" y="165" type="curve"/>
      <point x="378" y="169"/>
      <point x="373" y="179"/>
      <point x="373" y="195" type="curve" smooth="yes"/>
      <point x="373" y="210"/>
      <point x="378" y="219"/>
      <point x="387" y="223" type="curve"/>
      <point x="370" y="223"/>
      <point x="361" y="234"/>
      <point x="361" y="256" type="curve" smooth="yes"/>
      <point x="361" y="265"/>
      <point x="363" y="274"/>
      <point x="368" y="281" type="curve"/>
      <point x="365" y="278"/>
      <point x="360" y="277"/>
      <point x="353" y="277" type="curve" smooth="yes"/>
      <point x="334" y="277"/>
      <point x="325" y="288"/>
      <point x="325" y="309" type="curve" smooth="yes"/>
      <point x="325" y="330"/>
      <point x="334" y="340"/>
      <point x="353" y="340" type="curve" smooth="yes"/>
      <point x="371" y="340"/>
      <point x="380" y="330"/>
      <point x="380" y="309" type="curve" smooth="yes"/>
      <point x="380" y="298"/>
      <point x="377" y="289"/>
      <point x="371" y="283" type="curve"/>
      <point x="376" y="286"/>
      <point x="383" y="288"/>
      <point x="390" y="288" type="curve" smooth="yes"/>
      <point x="407" y="288"/>
      <point x="416" y="277"/>
      <point x="416" y="256" type="curve" smooth="yes"/>
    </contour>
  </outline>
</glyph>
<glyph name="commaaccent" format="1">
  <advance width="500"/>
  <unicode hex="F6C3"/>
  <outline>
    <contour>
      <point x="288" y="-242"/>
      <point x="321" y="-175"/>
      <point x="321" y="-119" type="curve" smooth="yes"/>
      <point x="321" y="-72"/>
      <point x="296" y="-36"/>
      <point x="247" y="-36" type="curve" smooth="yes"/>
      <point x="209" y="-36"/>
      <point x="179" y="-68"/>
      <point x="179" y="-107" type="curve" smooth="yes"/>
      <point x="179" y="-145"/>
      <point x="207" y="-170"/>
      <point x="236" y="-176" type="curve" smooth="yes"/>
      <point x="255" y="-180"/>
      <point x="262" y="-187"/>
      <point x="262" y="-201" type="curve" smooth="yes"/>
      <point x="262" y="-218"/>
      <point x="247" y="-248"/>
      <point x="223" y="-273" type="curve"/>
      <point x="244" y="-289" type="line"/>
    </contour>
    <contour>
      <point x="250" y="0" type="move" name="_bottom"/>
    </contour>
  </outline>
</glyph>
<glyph name="fi" format="1">
  <advance width="601"/>
  <unicode hex="FB01"/>
  <outline>
    <contour>
      <point x="293" y="22"/>
      <point x="288" y="26"/>
      <point x="269" y="26" type="curve" smooth="yes"/>
      <point x="228" y="26" type="line"/>
      <point x="228" y="435" type="line"/>
      <point x="101" y="443" type="line"/>
      <point x="101" y="78" type="line" smooth="yes"/>
      <point x="101" y="36"/>
      <point x="67" y="26"/>
      <point x="25" y="26" type="curve"/>
      <point x="25" y="0" type="line"/>
      <point x="293" y="0" type="line"/>
    </contour>
    <contour>
      <point x="503" y="498"/>
      <point x="529" y="524"/>
      <point x="529" y="555" type="curve" smooth="yes"/>
      <point x="529" y="607"/>
      <point x="455" y="655"/>
      <point x="336" y="655" type="curve" smooth="yes"/>
      <point x="211" y="655"/>
      <point x="101" y="601"/>
      <point x="101" y="443" type="curve"/>
      <point x="228" y="435" type="line"/>
      <point x="228" y="585"/>
      <point x="246" y="632"/>
      <point x="320" y="632" type="curve" smooth="yes"/>
      <point x="404" y="632"/>
      <point x="360" y="498"/>
      <point x="466" y="498" type="curve" smooth="yes"/>
    </contour>
    <contour>
      <point x="20" y="404" type="line"/>
      <point x="331" y="404" type="line"/>
      <point x="331" y="430" type="line"/>
      <point x="20" y="430" type="line"/>
    </contour>
    <contour>
      <point x="586" y="22"/>
      <point x="581" y="26"/>
      <point x="562" y="26" type="curve" smooth="yes"/>
      <point x="525" y="26" type="line"/>
      <point x="525" y="430" type="line"/>
      <point x="320" y="430" type="line"/>
      <point x="320" y="404" type="line"/>
      <point x="398" y="404" type="line"/>
      <point x="398" y="78" type="line" smooth="yes"/>
      <point x="398" y="36"/>
      <point x="384" y="26"/>
      <point x="346" y="26" type="curve"/>
      <point x="346" y="0" type="line"/>
      <point x="586" y="0" type="line"/>
    </contour>
  </outline>
</glyph>
<glyph name="czechcaron" format="1">
  <advance width="500"/>
  <outline>
    <contour>
      <point x="288" y="453"/>
      <point x="321" y="520"/>
      <point x="321" y="576" type="curve" smooth="yes"/>
      <point x="321" y="623"/>
      <point x="296" y="659"/>
      <point x="247" y="659" type="curve" smooth="yes"/>
      <point x="209" y="659"/>
      <point x="179" y="627"/>
      <point x="179" y="588" type="curve" smooth="yes"/>
      <point x="179" y="550"/>
      <point x="207" y="525"/>
      <point x="236" y="519" type="curve" smooth="yes"/>
      <point x="255" y="515"/>
      <point x="262" y="508"/>
      <point x="262" y="494" type="curve" smooth="yes"/>
      <point x="262" y="477"/>
      <point x="247" y="447"/>
      <point x="223" y="422" type="curve"/>
      <point x="244" y="406" type="line"/>
    </contour>
  </outline>
</glyph>
<glyph name="four.numr" format="1">
  <advance width="410"/>
  <outline>
    <contour>
      <point x="166" y="119"/>
      <point x="323" y="209"/>
      <point x="323" y="286" type="curve" smooth="yes"/>
      <point x="323" y="316"/>
      <point x="300" y="333"/>
      <point x="266" y="333" type="curve" smooth="yes"/>
      <point x="174" y="333"/>
      <point x="233" y="202"/>
      <point x="26" y="53" type="curve"/>
      <point x="56" y="46" type="line"/>
    </contour>
    <contour>
      <point x="390" y="-65" type="line"/>
      <point x="390" y="-46"/>
      <point x="386" y="-42"/>
      <point x="370" y="-42" type="curve" smooth="yes"/>
      <point x="127" y="-42" type="line"/>
      <point x="127" y="-65" type="line"/>
    </contour>
    <contour>
      <point x="390" y="51" type="line"/>
      <point x="26" y="53" type="line"/>
      <point x="31" y="28" type="line"/>
      <point x="390" y="26" type="line"/>
    </contour>
    <contour>
      <point x="318" y="-65" type="line"/>
      <point x="318" y="182" type="line"/>
      <point x="299" y="182" type="line"/>
      <point x="290" y="157" type="line" smooth="yes"/>
      <point x="278" y="124"/>
      <point x="252" y="121"/>
      <point x="218" y="121" type="curve" smooth="yes"/>
      <point x="206" y="121" type="line"/>
      <point x="206" y="-65" type="line"/>
    </contour>
  </outline>
</glyph>
<glyph name="nine.numr" format="1">
  <advance width="564"/>
  <outline>
    <contour>
      <point x="424" y="-10"/>
      <point x="509" y="148"/>
      <point x="509" y="324" type="curve" smooth="yes"/>
      <point x="509" y="510"/>
      <point x="416" y="610"/>
      <point x="272" y="610" type="curve" smooth="yes"/>
      <point x="120" y="610"/>
      <point x="35" y="531"/>
      <point x="35" y="420" type="curve" smooth="yes"/>
      <point x="35" y="312"/>
      <point x="116" y="244"/>
      <point x="252" y="244" type="curve" smooth="yes"/>
      <point x="311" y="244"/>
      <point x="369" y="267"/>
      <point x="412" y="316" type="curve"/>
      <point x="369" y="317" type="line"/>
      <point x="369" y="156"/>
      <point x="358" y="15"/>
      <point x="252" y="15" type="curve" smooth="yes"/>
      <point x="135" y="15"/>
      <point x="248" y="178"/>
      <point x="122" y="178" type="curve" smooth="yes"/>
      <point x="78" y="178"/>
      <point x="55" y="148"/>
      <point x="55" y="116" type="curve" smooth="yes"/>
      <point x="55" y="40"/>
      <point x="147" y="-10"/>
      <point x="246" y="-10" type="curve" smooth="yes"/>
    </contour>
    <contour>
      <point x="188" y="277"/>
      <point x="170" y="353"/>
      <point x="170" y="437" type="curve" smooth="yes"/>
      <point x="170" y="517"/>
      <point x="190" y="584"/>
      <point x="267" y="584" type="curve" smooth="yes"/>
      <point x="339" y="584"/>
      <point x="369" y="511"/>
      <point x="369" y="426" type="curve" smooth="yes"/>
      <point x="369" y="329"/>
      <point x="325" y="277"/>
      <point x="266" y="277" type="curve" smooth="yes"/>
    </contour>
  </outline>
</glyph>
<glyph name="one.numr" format="1">
  <advance width="315"/>
  <outline>
    <contour>
      <point x="158" y="330" type="line"/>
      <point x="10" y="230" type="line"/>
      <point x="25" y="206" type="line"/>
      <point x="116" y="267" type="line"/>
      <point x="116" y="29" type="line"/>
      <point x="30" y="22" type="line"/>
      <point x="30" y="0" type="line"/>
      <point x="303" y="0" type="line"/>
      <point x="303" y="16"/>
      <point x="294" y="20"/>
      <point x="277" y="22" type="curve" smooth="yes"/>
      <point x="226" y="29" type="line"/>
      <point x="226" y="330" type="line"/>
    </contour>
  </outline>
</glyph>
<glyph name="one.tf" format="1">
  <advance width="468"/>
  <outline>
    <contour>
      <point x="238" y="600" type="line"/>
      <point x="25" y="465" type="line"/>
      <point x="43" y="437" type="line"/>
      <point x="187" y="524" type="line"/>
      <point x="187" y="35" type="line"/>
      <point x="60" y="26" type="line"/>
      <point x="60" y="0" type="line"/>
      <point x="438" y="0" type="line"/>
      <point x="438" y="19"/>
      <point x="427" y="24"/>
      <point x="407" y="26" type="curve" smooth="yes"/>
      <point x="327" y="35" type="line"/>
      <point x="327" y="600" type="line"/>
    </contour>
  </outline>
</glyph>
<glyph name="six.numr" format="1">
  <advance width="574"/>
  <outline>
    <contour>
      <point x="456" y="-10"/>
      <point x="534" y="89"/>
      <point x="534" y="185" type="curve" smooth="yes"/>
      <point x="534" y="277"/>
      <point x="466" y="366"/>
      <point x="330" y="366" type="curve" smooth="yes"/>
      <point x="268" y="366"/>
      <point x="205" y="343"/>
      <point x="159" y="296" type="curve"/>
      <point x="200" y="295" type="line"/>
      <point x="200" y="454"/>
      <point x="222" y="585"/>
      <point x="320" y="585" type="curve" smooth="yes"/>
      <point x="436" y="585"/>
      <point x="315" y="436"/>
      <point x="443" y="436" type="curve" smooth="yes"/>
      <point x="484" y="436"/>
      <point x="511" y="466"/>
      <point x="511" y="502" type="curve" smooth="yes"/>
      <point x="511" y="557"/>
      <point x="440" y="609"/>
      <point x="330" y="609" type="curve" smooth="yes"/>
      <point x="133" y="609"/>
      <point x="60" y="456"/>
      <point x="60" y="296" type="curve" smooth="yes"/>
      <point x="60" y="72"/>
      <point x="173" y="-10"/>
      <point x="294" y="-10" type="curve" smooth="yes"/>
    </contour>
    <contour>
      <point x="244" y="16"/>
      <point x="200" y="64"/>
      <point x="200" y="173" type="curve" smooth="yes"/>
      <point x="200" y="284"/>
      <point x="248" y="335"/>
      <point x="304" y="335" type="curve" smooth="yes"/>
      <point x="357" y="335"/>
      <point x="399" y="290"/>
      <point x="399" y="184" type="curve" smooth="yes"/>
      <point x="399" y="66"/>
      <point x="353" y="16"/>
      <point x="298" y="16" type="curve" smooth="yes"/>
    </contour>
  </outline>
</glyph>
<glyph name="three.numr" format="1">
  <advance width="345"/>
  <outline>
    <contour>
      <point x="229" y="-40"/>
      <point x="320" y="-1"/>
      <point x="320" y="75" type="curve" smooth="yes"/>
      <point x="320" y="123"/>
      <point x="280" y="168"/>
      <point x="200" y="168" type="curve" smooth="yes"/>
      <point x="175" y="168"/>
      <point x="136" y="162"/>
      <point x="112" y="152" type="curve"/>
      <point x="129" y="140" type="line"/>
      <point x="141" y="144"/>
      <point x="152" y="147"/>
      <point x="162" y="147" type="curve" smooth="yes"/>
      <point x="189" y="147"/>
      <point x="209" y="127"/>
      <point x="209" y="73" type="curve" smooth="yes"/>
      <point x="209" y="19"/>
      <point x="200" y="-24"/>
      <point x="152" y="-24" type="curve" smooth="yes"/>
      <point x="82" y="-24"/>
      <point x="156" y="79"/>
      <point x="66" y="79" type="curve" smooth="yes"/>
      <point x="34" y="79"/>
      <point x="20" y="60"/>
      <point x="20" y="37" type="curve" smooth="yes"/>
      <point x="20" y="-14"/>
      <point x="80" y="-40"/>
      <point x="149" y="-40" type="curve" smooth="yes"/>
    </contour>
    <contour>
      <point x="50" y="200" type="line"/>
      <point x="61" y="227" type="line" smooth="yes"/>
      <point x="71" y="253"/>
      <point x="83" y="254"/>
      <point x="107" y="254" type="curve"/>
      <point x="36" y="329" type="line"/>
      <point x="35" y="200" type="line"/>
    </contour>
    <contour>
      <point x="315" y="311" type="line"/>
      <point x="210" y="254" type="line"/>
      <point x="112" y="152" type="line"/>
      <point x="129" y="140" type="line"/>
    </contour>
    <contour>
      <point x="210" y="254" type="line"/>
      <point x="315" y="311" type="line"/>
      <point x="315" y="329" type="line"/>
      <point x="36" y="329" type="line"/>
      <point x="36" y="254" type="line"/>
    </contour>
  </outline>
</glyph>
<glyph name="three.tf" format="1">
  <advance width="539"/>
  <outline>
    <contour>
      <point x="414" y="-10"/>
      <point x="499" y="86"/>
      <point x="499" y="178" type="curve" smooth="yes"/>
      <point x="499" y="267"/>
      <point x="429" y="341"/>
      <point x="297" y="341" type="curve" smooth="yes"/>
      <point x="254" y="341"/>
      <point x="209" y="332"/>
      <point x="168" y="315" type="curve"/>
      <point x="194" y="294" type="line"/>
      <point x="218" y="304"/>
      <point x="242" y="308"/>
      <point x="261" y="308" type="curve" smooth="yes"/>
      <point x="329" y="308"/>
      <point x="361" y="246"/>
      <point x="361" y="179" type="curve" smooth="yes"/>
      <point x="361" y="101"/>
      <point x="312" y="17"/>
      <point x="227" y="17" type="curve" smooth="yes"/>
      <point x="109" y="17"/>
      <point x="228" y="182"/>
      <point x="103" y="182" type="curve" smooth="yes"/>
      <point x="60" y="182"/>
      <point x="37" y="154"/>
      <point x="37" y="118" type="curve" smooth="yes"/>
      <point x="37" y="61"/>
      <point x="97" y="-10"/>
      <point x="232" y="-10" type="curve" smooth="yes"/>
    </contour>
    <contour>
      <point x="94" y="414" type="line"/>
      <point x="112" y="460" type="line" smooth="yes"/>
      <point x="129" y="503"/>
      <point x="149" y="505"/>
      <point x="190" y="505" type="curve"/>
      <point x="71" y="603" type="line"/>
      <point x="69" y="414" type="line"/>
    </contour>
    <contour>
      <point x="474" y="573" type="line"/>
      <point x="351" y="505" type="line"/>
      <point x="168" y="315" type="line"/>
      <point x="194" y="294" type="line"/>
    </contour>
    <contour>
      <point x="351" y="505" type="line"/>
      <point x="474" y="573" type="line"/>
      <point x="474" y="603" type="line"/>
      <point x="71" y="603" type="line"/>
      <point x="71" y="505" type="line"/>
    </contour>
  </outline>
</glyph>
<glyph name="two.numr" format="1">
  <advance width="320"/>
  <outline>
    <contour>
      <point x="67" y="75" type="line"/>
      <point x="108" y="139"/>
      <point x="291" y="125"/>
      <point x="291" y="244" type="curve" smooth="yes"/>
      <point x="291" y="312"/>
      <point x="216" y="340"/>
      <point x="147" y="340" type="curve" smooth="yes"/>
      <point x="87" y="340"/>
      <point x="12" y="312"/>
      <point x="12" y="253" type="curve" smooth="yes"/>
      <point x="12" y="226"/>
      <point x="27" y="206"/>
      <point x="63" y="206" type="curve" smooth="yes"/>
      <point x="160" y="206"/>
      <point x="90" y="319"/>
      <point x="145" y="319" type="curve" smooth="yes"/>
      <point x="179" y="319"/>
      <point x="181" y="288"/>
      <point x="181" y="244" type="curve" smooth="yes"/>
      <point x="181" y="105"/>
      <point x="10" y="144"/>
      <point x="10" y="5" type="curve"/>
    </contour>
    <contour>
      <point x="294" y="0" type="line"/>
      <point x="294" y="75" type="line"/>
      <point x="67" y="75" type="line"/>
      <point x="10" y="5" type="line"/>
      <point x="10" y="0" type="line"/>
    </contour>
    <contour>
      <point x="295" y="124" type="line"/>
      <point x="279" y="124" type="line"/>
      <point x="267" y="93" type="line" smooth="yes"/>
      <point x="260" y="76"/>
      <point x="243" y="75"/>
      <point x="216" y="75" type="curve"/>
      <point x="294" y="0" type="line"/>
    </contour>
  </outline>
</glyph>
<glyph name="vertical_stem_upper" format="1">
  <advance width="224"/>
  <outline>
    <contour>
      <point x="182" y="0" type="line"/>
      <point x="182" y="600" type="line"/>
      <point x="42" y="600" type="line"/>
      <point x="42" y="0" type="line"/>
    </contour>
  </outline>
</glyph>
<glyph name="zero.numr" format="1">
  <advance width="624"/>
  <outline>
    <contour>
      <point x="586" y="503"/>
      <point x="474" y="610"/>
      <point x="316" y="610" type="curve" smooth="yes"/>
      <point x="156" y="610"/>
      <point x="38" y="497"/>
      <point x="38" y="302" type="curve" smooth="yes"/>
      <point x="38" y="102"/>
      <point x="151" y="-10"/>
      <point x="311" y="-10" type="curve" smooth="yes"/>
      <point x="470" y="-10"/>
      <point x="586" y="103"/>
      <point x="586" y="298" type="curve" smooth="yes"/>
    </contour>
    <contour>
      <point x="432" y="98"/>
      <point x="407" y="17"/>
      <point x="314" y="17" type="curve" smooth="yes"/>
      <point x="221" y="17"/>
      <point x="192" y="88"/>
      <point x="192" y="298" type="curve" smooth="yes"/>
      <point x="192" y="498"/>
      <point x="220" y="583"/>
      <point x="313" y="583" type="curve" smooth="yes"/>
      <point x="404" y="583"/>
      <point x="432" y="500"/>
      <point x="432" y="303" type="curve" smooth="yes"/>
    </contour>
  </outline>
</glyph>
